<mxfile host="app.diagrams.net" agent="Mozilla/5.0 (Windows NT 10.0; Win64; x64) AppleWebKit/537.36 (KHTML, like Gecko) Chrome/131.0.0.0 Safari/537.36" version="25.0.3">
  <diagram id="R2lEEEUBdFMjLlhIrx00" name="Page-1">
    <mxGraphModel dx="3984" dy="1922" grid="1" gridSize="10" guides="1" tooltips="1" connect="1" arrows="1" fold="1" page="1" pageScale="1" pageWidth="850" pageHeight="1100" math="0" shadow="0" extFonts="Permanent Marker^https://fonts.googleapis.com/css?family=Permanent+Marker">
      <root>
        <mxCell id="0" />
        <mxCell id="1" parent="0" />
        <mxCell id="yKZ0u5D3wlYWX15F0u5D-1" value="User" style="whiteSpace=wrap;html=1;align=center;" parent="1" vertex="1">
          <mxGeometry x="220" y="420" width="100" height="40" as="geometry" />
        </mxCell>
        <mxCell id="yKZ0u5D3wlYWX15F0u5D-2" value="Subscription plan" style="whiteSpace=wrap;html=1;align=center;" parent="1" vertex="1">
          <mxGeometry x="-120" y="420" width="100" height="40" as="geometry" />
        </mxCell>
        <mxCell id="yKZ0u5D3wlYWX15F0u5D-3" value="Artist" style="whiteSpace=wrap;html=1;align=center;" parent="1" vertex="1">
          <mxGeometry x="525" y="430" width="100" height="40" as="geometry" />
        </mxCell>
        <mxCell id="yKZ0u5D3wlYWX15F0u5D-4" value="Album" style="whiteSpace=wrap;html=1;align=center;" parent="1" vertex="1">
          <mxGeometry x="525" y="600" width="100" height="40" as="geometry" />
        </mxCell>
        <mxCell id="yKZ0u5D3wlYWX15F0u5D-5" value="Track" style="whiteSpace=wrap;html=1;align=center;" parent="1" vertex="1">
          <mxGeometry x="525" y="780" width="100" height="40" as="geometry" />
        </mxCell>
        <mxCell id="yKZ0u5D3wlYWX15F0u5D-6" value="Playlist" style="whiteSpace=wrap;html=1;align=center;" parent="1" vertex="1">
          <mxGeometry x="230" y="600" width="100" height="40" as="geometry" />
        </mxCell>
        <mxCell id="yKZ0u5D3wlYWX15F0u5D-7" value="Creates" style="shape=rhombus;perimeter=rhombusPerimeter;whiteSpace=wrap;html=1;align=center;" parent="1" vertex="1">
          <mxGeometry x="395" y="590" width="120" height="60" as="geometry" />
        </mxCell>
        <mxCell id="yKZ0u5D3wlYWX15F0u5D-11" value="Follows" style="shape=rhombus;perimeter=rhombusPerimeter;whiteSpace=wrap;html=1;align=center;" parent="1" vertex="1">
          <mxGeometry x="300" y="460" width="120" height="60" as="geometry" />
        </mxCell>
        <mxCell id="yKZ0u5D3wlYWX15F0u5D-12" value="Follows" style="shape=rhombus;perimeter=rhombusPerimeter;whiteSpace=wrap;html=1;align=center;" parent="1" vertex="1">
          <mxGeometry x="380" y="420" width="120" height="60" as="geometry" />
        </mxCell>
        <mxCell id="yKZ0u5D3wlYWX15F0u5D-13" value="Creates" style="shape=rhombus;perimeter=rhombusPerimeter;whiteSpace=wrap;html=1;align=center;" parent="1" vertex="1">
          <mxGeometry x="515" y="500" width="120" height="60" as="geometry" />
        </mxCell>
        <mxCell id="yKZ0u5D3wlYWX15F0u5D-14" value="Creates" style="shape=rhombus;perimeter=rhombusPerimeter;whiteSpace=wrap;html=1;align=center;" parent="1" vertex="1">
          <mxGeometry x="220" y="500" width="120" height="60" as="geometry" />
        </mxCell>
        <mxCell id="yKZ0u5D3wlYWX15F0u5D-16" value="Subscribes to" style="shape=rhombus;perimeter=rhombusPerimeter;whiteSpace=wrap;html=1;align=center;" parent="1" vertex="1">
          <mxGeometry y="410" width="120" height="60" as="geometry" />
        </mxCell>
        <mxCell id="yKZ0u5D3wlYWX15F0u5D-17" value="Contains&lt;span style=&quot;color: rgba(0, 0, 0, 0); font-family: monospace; font-size: 0px; text-align: start; text-wrap-mode: nowrap;&quot;&gt;%3CmxGraphModel%3E%3Croot%3E%3CmxCell%20id%3D%220%22%2F%3E%3CmxCell%20id%3D%221%22%20parent%3D%220%22%2F%3E%3CmxCell%20id%3D%222%22%20value%3D%22Creates%22%20style%3D%22shape%3Drhombus%3Bperimeter%3DrhombusPerimeter%3BwhiteSpace%3Dwrap%3Bhtml%3D1%3Balign%3Dcenter%3B%22%20vertex%3D%221%22%20parent%3D%221%22%3E%3CmxGeometry%20x%3D%22190%22%20y%3D%22190%22%20width%3D%22120%22%20height%3D%2260%22%20as%3D%22geometry%22%2F%3E%3C%2FmxCell%3E%3C%2Froot%3E%3C%2FmxGraphModel%3E&lt;/span&gt;" style="shape=rhombus;perimeter=rhombusPerimeter;whiteSpace=wrap;html=1;align=center;" parent="1" vertex="1">
          <mxGeometry x="515" y="680" width="120" height="60" as="geometry" />
        </mxCell>
        <mxCell id="yKZ0u5D3wlYWX15F0u5D-18" value="Contains&lt;span style=&quot;color: rgba(0, 0, 0, 0); font-family: monospace; font-size: 0px; text-align: start; text-wrap-mode: nowrap;&quot;&gt;%3CmxGraphModel%3E%3Croot%3E%3CmxCell%20id%3D%220%22%2F%3E%3CmxCell%20id%3D%221%22%20parent%3D%220%22%2F%3E%3CmxCell%20id%3D%222%22%20value%3D%22Creates%22%20style%3D%22shape%3Drhombus%3Bperimeter%3DrhombusPerimeter%3BwhiteSpace%3Dwrap%3Bhtml%3D1%3Balign%3Dcenter%3B%22%20vertex%3D%221%22%20parent%3D%221%22%3E%3CmxGeometry%20x%3D%22190%22%20y%3D%22190%22%20width%3D%22120%22%20height%3D%2260%22%20as%3D%22geometry%22%2F%3E%3C%2FmxCell%3E%3C%2Froot%3E%3C%2FmxGraphModel%3E&lt;/span&gt;" style="shape=rhombus;perimeter=rhombusPerimeter;whiteSpace=wrap;html=1;align=center;" parent="1" vertex="1">
          <mxGeometry x="220" y="770" width="120" height="60" as="geometry" />
        </mxCell>
        <mxCell id="yKZ0u5D3wlYWX15F0u5D-21" value="" style="endArrow=none;html=1;rounded=0;exitX=1;exitY=0.5;exitDx=0;exitDy=0;entryX=0;entryY=0.5;entryDx=0;entryDy=0;" parent="1" source="yKZ0u5D3wlYWX15F0u5D-1" target="yKZ0u5D3wlYWX15F0u5D-12" edge="1">
          <mxGeometry relative="1" as="geometry">
            <mxPoint x="320" y="440" as="sourcePoint" />
            <mxPoint x="370" y="440" as="targetPoint" />
          </mxGeometry>
        </mxCell>
        <mxCell id="yKZ0u5D3wlYWX15F0u5D-22" value="N" style="resizable=0;html=1;whiteSpace=wrap;align=right;verticalAlign=bottom;" parent="yKZ0u5D3wlYWX15F0u5D-21" connectable="0" vertex="1">
          <mxGeometry x="1" relative="1" as="geometry">
            <mxPoint x="10" y="-5" as="offset" />
          </mxGeometry>
        </mxCell>
        <mxCell id="yKZ0u5D3wlYWX15F0u5D-23" value="" style="endArrow=none;html=1;rounded=0;" parent="1" source="yKZ0u5D3wlYWX15F0u5D-12" target="yKZ0u5D3wlYWX15F0u5D-3" edge="1">
          <mxGeometry relative="1" as="geometry">
            <mxPoint x="490" y="460" as="sourcePoint" />
            <mxPoint x="520" y="470" as="targetPoint" />
          </mxGeometry>
        </mxCell>
        <mxCell id="yKZ0u5D3wlYWX15F0u5D-24" value="M" style="resizable=0;html=1;whiteSpace=wrap;align=right;verticalAlign=bottom;" parent="yKZ0u5D3wlYWX15F0u5D-23" connectable="0" vertex="1">
          <mxGeometry x="1" relative="1" as="geometry" />
        </mxCell>
        <mxCell id="yKZ0u5D3wlYWX15F0u5D-25" value="" style="endArrow=none;html=1;rounded=0;exitX=0.5;exitY=1;exitDx=0;exitDy=0;entryX=0.5;entryY=0;entryDx=0;entryDy=0;" parent="1" source="yKZ0u5D3wlYWX15F0u5D-3" target="yKZ0u5D3wlYWX15F0u5D-13" edge="1">
          <mxGeometry relative="1" as="geometry">
            <mxPoint x="680" y="480" as="sourcePoint" />
            <mxPoint x="680" y="520" as="targetPoint" />
          </mxGeometry>
        </mxCell>
        <mxCell id="yKZ0u5D3wlYWX15F0u5D-26" value="N" style="resizable=0;html=1;whiteSpace=wrap;align=right;verticalAlign=bottom;" parent="yKZ0u5D3wlYWX15F0u5D-25" connectable="0" vertex="1">
          <mxGeometry x="1" relative="1" as="geometry">
            <mxPoint x="15" as="offset" />
          </mxGeometry>
        </mxCell>
        <mxCell id="yKZ0u5D3wlYWX15F0u5D-45" value="" style="endArrow=none;html=1;rounded=0;exitX=0.75;exitY=1;exitDx=0;exitDy=0;" parent="1" source="yKZ0u5D3wlYWX15F0u5D-1" target="yKZ0u5D3wlYWX15F0u5D-11" edge="1">
          <mxGeometry relative="1" as="geometry">
            <mxPoint x="330" y="580" as="sourcePoint" />
            <mxPoint x="490" y="580" as="targetPoint" />
          </mxGeometry>
        </mxCell>
        <mxCell id="yKZ0u5D3wlYWX15F0u5D-46" value="N" style="resizable=0;html=1;whiteSpace=wrap;align=right;verticalAlign=bottom;" parent="yKZ0u5D3wlYWX15F0u5D-45" connectable="0" vertex="1">
          <mxGeometry x="1" relative="1" as="geometry">
            <mxPoint x="10" y="-5" as="offset" />
          </mxGeometry>
        </mxCell>
        <mxCell id="yKZ0u5D3wlYWX15F0u5D-47" value="" style="endArrow=none;html=1;rounded=0;entryX=1;entryY=0;entryDx=0;entryDy=0;exitX=0.5;exitY=1;exitDx=0;exitDy=0;" parent="1" source="yKZ0u5D3wlYWX15F0u5D-11" target="yKZ0u5D3wlYWX15F0u5D-6" edge="1">
          <mxGeometry relative="1" as="geometry">
            <mxPoint x="495" y="450" as="sourcePoint" />
            <mxPoint x="340" y="530" as="targetPoint" />
          </mxGeometry>
        </mxCell>
        <mxCell id="yKZ0u5D3wlYWX15F0u5D-48" value="M" style="resizable=0;html=1;whiteSpace=wrap;align=right;verticalAlign=bottom;" parent="yKZ0u5D3wlYWX15F0u5D-47" connectable="0" vertex="1">
          <mxGeometry x="1" relative="1" as="geometry">
            <mxPoint x="20" y="-10" as="offset" />
          </mxGeometry>
        </mxCell>
        <mxCell id="yKZ0u5D3wlYWX15F0u5D-52" value="" style="endArrow=none;html=1;rounded=0;exitX=0;exitY=1;exitDx=0;exitDy=0;entryX=0.5;entryY=0;entryDx=0;entryDy=0;" parent="1" source="yKZ0u5D3wlYWX15F0u5D-3" target="yKZ0u5D3wlYWX15F0u5D-7" edge="1">
          <mxGeometry relative="1" as="geometry">
            <mxPoint x="585" y="570" as="sourcePoint" />
            <mxPoint x="585" y="610" as="targetPoint" />
          </mxGeometry>
        </mxCell>
        <mxCell id="yKZ0u5D3wlYWX15F0u5D-55" value="ID" style="ellipse;whiteSpace=wrap;html=1;align=center;fontStyle=4;" parent="1" vertex="1">
          <mxGeometry x="660" y="560" width="100" height="40" as="geometry" />
        </mxCell>
        <mxCell id="yKZ0u5D3wlYWX15F0u5D-57" value="ID" style="ellipse;whiteSpace=wrap;html=1;align=center;fontStyle=4;" parent="1" vertex="1">
          <mxGeometry x="480" y="350" width="100" height="40" as="geometry" />
        </mxCell>
        <mxCell id="yKZ0u5D3wlYWX15F0u5D-58" value="ID" style="ellipse;whiteSpace=wrap;html=1;align=center;fontStyle=4;" parent="1" vertex="1">
          <mxGeometry x="100" y="550" width="100" height="40" as="geometry" />
        </mxCell>
        <mxCell id="yKZ0u5D3wlYWX15F0u5D-59" value="ID" style="ellipse;whiteSpace=wrap;html=1;align=center;fontStyle=4;" parent="1" vertex="1">
          <mxGeometry x="80" y="380" width="100" height="40" as="geometry" />
        </mxCell>
        <mxCell id="yKZ0u5D3wlYWX15F0u5D-60" value="ID" style="ellipse;whiteSpace=wrap;html=1;align=center;fontStyle=4;" parent="1" vertex="1">
          <mxGeometry x="-240" y="380" width="100" height="40" as="geometry" />
        </mxCell>
        <mxCell id="yKZ0u5D3wlYWX15F0u5D-61" value="ID" style="ellipse;whiteSpace=wrap;html=1;align=center;fontStyle=4;" parent="1" vertex="1">
          <mxGeometry x="490" y="840" width="100" height="40" as="geometry" />
        </mxCell>
        <mxCell id="yKZ0u5D3wlYWX15F0u5D-63" value="Type" style="ellipse;whiteSpace=wrap;html=1;align=center;" parent="1" vertex="1">
          <mxGeometry x="-240" y="460" width="100" height="40" as="geometry" />
        </mxCell>
        <mxCell id="yKZ0u5D3wlYWX15F0u5D-65" value="1" style="endArrow=none;html=1;rounded=0;entryX=0;entryY=0;entryDx=0;entryDy=0;" parent="1" source="yKZ0u5D3wlYWX15F0u5D-60" target="yKZ0u5D3wlYWX15F0u5D-2" edge="1">
          <mxGeometry relative="1" as="geometry">
            <mxPoint x="-130" y="520" as="sourcePoint" />
            <mxPoint x="30" y="520" as="targetPoint" />
          </mxGeometry>
        </mxCell>
        <mxCell id="yKZ0u5D3wlYWX15F0u5D-66" value="1" style="endArrow=none;html=1;rounded=0;entryX=0;entryY=1;entryDx=0;entryDy=0;" parent="1" source="yKZ0u5D3wlYWX15F0u5D-63" target="yKZ0u5D3wlYWX15F0u5D-2" edge="1">
          <mxGeometry relative="1" as="geometry">
            <mxPoint x="-109" y="416" as="sourcePoint" />
            <mxPoint x="-80" y="430" as="targetPoint" />
          </mxGeometry>
        </mxCell>
        <mxCell id="yKZ0u5D3wlYWX15F0u5D-68" value="1" style="endArrow=none;html=1;rounded=0;exitX=1;exitY=0.5;exitDx=0;exitDy=0;" parent="1" source="yKZ0u5D3wlYWX15F0u5D-59" target="yKZ0u5D3wlYWX15F0u5D-1" edge="1">
          <mxGeometry relative="1" as="geometry">
            <mxPoint x="301" y="357" as="sourcePoint" />
            <mxPoint x="335" y="380" as="targetPoint" />
          </mxGeometry>
        </mxCell>
        <mxCell id="yKZ0u5D3wlYWX15F0u5D-70" value="1" style="endArrow=none;html=1;rounded=0;entryX=0.25;entryY=0;entryDx=0;entryDy=0;" parent="1" source="yKZ0u5D3wlYWX15F0u5D-57" target="yKZ0u5D3wlYWX15F0u5D-3" edge="1">
          <mxGeometry relative="1" as="geometry">
            <mxPoint x="222" y="398" as="sourcePoint" />
            <mxPoint x="261" y="430" as="targetPoint" />
          </mxGeometry>
        </mxCell>
        <mxCell id="yKZ0u5D3wlYWX15F0u5D-72" value="email" style="ellipse;whiteSpace=wrap;html=1;align=center;" parent="1" vertex="1">
          <mxGeometry x="70" y="300" width="100" height="40" as="geometry" />
        </mxCell>
        <mxCell id="yKZ0u5D3wlYWX15F0u5D-73" value="password" style="ellipse;whiteSpace=wrap;html=1;align=center;" parent="1" vertex="1">
          <mxGeometry x="80" y="260" width="100" height="40" as="geometry" />
        </mxCell>
        <mxCell id="yKZ0u5D3wlYWX15F0u5D-74" value="birthday" style="ellipse;whiteSpace=wrap;html=1;align=center;" parent="1" vertex="1">
          <mxGeometry x="180" y="240" width="100" height="40" as="geometry" />
        </mxCell>
        <mxCell id="yKZ0u5D3wlYWX15F0u5D-75" value="profile img" style="ellipse;whiteSpace=wrap;html=1;align=center;" parent="1" vertex="1">
          <mxGeometry x="280" y="260" width="100" height="40" as="geometry" />
        </mxCell>
        <mxCell id="yKZ0u5D3wlYWX15F0u5D-76" value="subsciption due date" style="ellipse;whiteSpace=wrap;html=1;align=center;" parent="1" vertex="1">
          <mxGeometry x="330" y="380" width="100" height="40" as="geometry" />
        </mxCell>
        <mxCell id="yKZ0u5D3wlYWX15F0u5D-77" value="Subscription start date" style="ellipse;whiteSpace=wrap;html=1;align=center;" parent="1" vertex="1">
          <mxGeometry x="330" y="340" width="100" height="40" as="geometry" />
        </mxCell>
        <mxCell id="yKZ0u5D3wlYWX15F0u5D-78" value="Attribute" style="ellipse;whiteSpace=wrap;html=1;align=center;" parent="1" vertex="1">
          <mxGeometry x="330" y="300" width="100" height="40" as="geometry" />
        </mxCell>
        <mxCell id="yKZ0u5D3wlYWX15F0u5D-80" value="name(needs one sub att. min)" style="ellipse;whiteSpace=wrap;html=1;align=center;dashed=1;" parent="1" vertex="1">
          <mxGeometry x="80" y="340" width="100" height="40" as="geometry" />
        </mxCell>
        <mxCell id="yKZ0u5D3wlYWX15F0u5D-84" value="Fname(o)" style="ellipse;whiteSpace=wrap;html=1;align=center;" parent="1" vertex="1">
          <mxGeometry x="-50" y="320" width="100" height="40" as="geometry" />
        </mxCell>
        <mxCell id="yKZ0u5D3wlYWX15F0u5D-85" value="Lname (o)" style="ellipse;whiteSpace=wrap;html=1;align=center;" parent="1" vertex="1">
          <mxGeometry x="-50" y="270" width="100" height="40" as="geometry" />
        </mxCell>
        <mxCell id="yKZ0u5D3wlYWX15F0u5D-87" value="&lt;span style=&quot;color: rgb(0, 0, 0); font-family: Helvetica; font-size: 11px; font-style: normal; font-variant-ligatures: normal; font-variant-caps: normal; font-weight: 400; letter-spacing: normal; orphans: 2; text-align: center; text-indent: 0px; text-transform: none; widows: 2; word-spacing: 0px; -webkit-text-stroke-width: 0px; white-space: nowrap; background-color: rgb(255, 255, 255); text-decoration-thickness: initial; text-decoration-style: initial; text-decoration-color: initial; display: inline !important; float: none;&quot;&gt;0-1&lt;/span&gt;" style="endArrow=none;html=1;rounded=0;" parent="1" source="yKZ0u5D3wlYWX15F0u5D-84" target="yKZ0u5D3wlYWX15F0u5D-80" edge="1">
          <mxGeometry relative="1" as="geometry">
            <mxPoint x="-40" y="220" as="sourcePoint" />
            <mxPoint x="120" y="220" as="targetPoint" />
          </mxGeometry>
        </mxCell>
        <mxCell id="yKZ0u5D3wlYWX15F0u5D-88" value="0-1" style="endArrow=none;html=1;rounded=0;" parent="1" source="yKZ0u5D3wlYWX15F0u5D-85" target="yKZ0u5D3wlYWX15F0u5D-80" edge="1">
          <mxGeometry relative="1" as="geometry">
            <mxPoint x="45" y="324" as="sourcePoint" />
            <mxPoint x="95" y="346" as="targetPoint" />
          </mxGeometry>
        </mxCell>
        <mxCell id="yKZ0u5D3wlYWX15F0u5D-89" value="1" style="endArrow=none;html=1;rounded=0;exitX=1;exitY=0.5;exitDx=0;exitDy=0;" parent="1" source="yKZ0u5D3wlYWX15F0u5D-72" target="yKZ0u5D3wlYWX15F0u5D-1" edge="1">
          <mxGeometry relative="1" as="geometry">
            <mxPoint x="45" y="324" as="sourcePoint" />
            <mxPoint x="95" y="346" as="targetPoint" />
          </mxGeometry>
        </mxCell>
        <mxCell id="yKZ0u5D3wlYWX15F0u5D-90" value="1" style="endArrow=none;html=1;rounded=0;exitX=1;exitY=1;exitDx=0;exitDy=0;" parent="1" source="yKZ0u5D3wlYWX15F0u5D-73" target="yKZ0u5D3wlYWX15F0u5D-1" edge="1">
          <mxGeometry relative="1" as="geometry">
            <mxPoint x="193" y="330" as="sourcePoint" />
            <mxPoint x="270" y="430" as="targetPoint" />
          </mxGeometry>
        </mxCell>
        <mxCell id="yKZ0u5D3wlYWX15F0u5D-91" value="1" style="endArrow=none;html=1;rounded=0;" parent="1" source="yKZ0u5D3wlYWX15F0u5D-74" target="yKZ0u5D3wlYWX15F0u5D-1" edge="1">
          <mxGeometry relative="1" as="geometry">
            <mxPoint x="200" y="300" as="sourcePoint" />
            <mxPoint x="265" y="430" as="targetPoint" />
          </mxGeometry>
        </mxCell>
        <mxCell id="yKZ0u5D3wlYWX15F0u5D-92" value="1" style="endArrow=none;html=1;rounded=0;" parent="1" source="yKZ0u5D3wlYWX15F0u5D-75" target="yKZ0u5D3wlYWX15F0u5D-1" edge="1">
          <mxGeometry relative="1" as="geometry">
            <mxPoint x="275" y="270" as="sourcePoint" />
            <mxPoint x="275" y="430" as="targetPoint" />
          </mxGeometry>
        </mxCell>
        <mxCell id="yKZ0u5D3wlYWX15F0u5D-93" value="" style="endArrow=none;html=1;rounded=0;exitX=0;exitY=0.5;exitDx=0;exitDy=0;" parent="1" source="yKZ0u5D3wlYWX15F0u5D-78" target="yKZ0u5D3wlYWX15F0u5D-1" edge="1">
          <mxGeometry relative="1" as="geometry">
            <mxPoint x="332" y="310" as="sourcePoint" />
            <mxPoint x="283" y="430" as="targetPoint" />
          </mxGeometry>
        </mxCell>
        <mxCell id="yKZ0u5D3wlYWX15F0u5D-94" value="1" style="endArrow=none;html=1;rounded=0;exitX=0;exitY=0.5;exitDx=0;exitDy=0;" parent="1" source="yKZ0u5D3wlYWX15F0u5D-77" target="yKZ0u5D3wlYWX15F0u5D-1" edge="1">
          <mxGeometry relative="1" as="geometry">
            <mxPoint x="355" y="349" as="sourcePoint" />
            <mxPoint x="291" y="430" as="targetPoint" />
          </mxGeometry>
        </mxCell>
        <mxCell id="yKZ0u5D3wlYWX15F0u5D-95" value="1" style="endArrow=none;html=1;rounded=0;exitX=0;exitY=0.5;exitDx=0;exitDy=0;" parent="1" source="yKZ0u5D3wlYWX15F0u5D-76" target="yKZ0u5D3wlYWX15F0u5D-1" edge="1">
          <mxGeometry relative="1" as="geometry">
            <mxPoint x="314" y="387" as="sourcePoint" />
            <mxPoint x="260" y="423.9999999999999" as="targetPoint" />
          </mxGeometry>
        </mxCell>
        <mxCell id="yKZ0u5D3wlYWX15F0u5D-96" value="1" style="endArrow=none;html=1;rounded=0;exitX=1;exitY=0.5;exitDx=0;exitDy=0;" parent="1" source="yKZ0u5D3wlYWX15F0u5D-80" target="yKZ0u5D3wlYWX15F0u5D-1" edge="1">
          <mxGeometry relative="1" as="geometry">
            <mxPoint x="193" y="330" as="sourcePoint" />
            <mxPoint x="261" y="430" as="targetPoint" />
          </mxGeometry>
        </mxCell>
        <mxCell id="KcFt13vw23fe0HxH1k5O-15" value="name(needs one sub att. min)" style="ellipse;whiteSpace=wrap;html=1;align=center;dashed=1;" parent="1" vertex="1">
          <mxGeometry x="590" y="350" width="100" height="40" as="geometry" />
        </mxCell>
        <mxCell id="KcFt13vw23fe0HxH1k5O-17" value="Random (o)" style="ellipse;whiteSpace=wrap;html=1;align=center;" parent="1" vertex="1">
          <mxGeometry x="-50" y="370" width="100" height="40" as="geometry" />
        </mxCell>
        <mxCell id="KcFt13vw23fe0HxH1k5O-18" value="0-1" style="endArrow=none;html=1;rounded=0;" parent="1" source="KcFt13vw23fe0HxH1k5O-17" target="yKZ0u5D3wlYWX15F0u5D-80" edge="1">
          <mxGeometry relative="1" as="geometry">
            <mxPoint x="47" y="322" as="sourcePoint" />
            <mxPoint x="109" y="354" as="targetPoint" />
          </mxGeometry>
        </mxCell>
        <mxCell id="KcFt13vw23fe0HxH1k5O-19" value="Fname(o)" style="ellipse;whiteSpace=wrap;html=1;align=center;" parent="1" vertex="1">
          <mxGeometry x="610" y="250" width="100" height="40" as="geometry" />
        </mxCell>
        <mxCell id="KcFt13vw23fe0HxH1k5O-20" value="Lname (o)" style="ellipse;whiteSpace=wrap;html=1;align=center;" parent="1" vertex="1">
          <mxGeometry x="535" y="290" width="100" height="40" as="geometry" />
        </mxCell>
        <mxCell id="KcFt13vw23fe0HxH1k5O-21" value="Random (o)" style="ellipse;whiteSpace=wrap;html=1;align=center;" parent="1" vertex="1">
          <mxGeometry x="680" y="290" width="100" height="40" as="geometry" />
        </mxCell>
        <mxCell id="KcFt13vw23fe0HxH1k5O-22" value="0-1" style="endArrow=none;html=1;rounded=0;" parent="1" source="KcFt13vw23fe0HxH1k5O-20" target="KcFt13vw23fe0HxH1k5O-15" edge="1">
          <mxGeometry relative="1" as="geometry">
            <mxPoint x="490" y="230" as="sourcePoint" />
            <mxPoint x="650" y="230" as="targetPoint" />
          </mxGeometry>
        </mxCell>
        <mxCell id="KcFt13vw23fe0HxH1k5O-23" value="0-1" style="endArrow=none;html=1;rounded=0;" parent="1" source="KcFt13vw23fe0HxH1k5O-15" target="KcFt13vw23fe0HxH1k5O-19" edge="1">
          <mxGeometry relative="1" as="geometry">
            <mxPoint x="530" y="250" as="sourcePoint" />
            <mxPoint x="690" y="260" as="targetPoint" />
          </mxGeometry>
        </mxCell>
        <mxCell id="KcFt13vw23fe0HxH1k5O-24" value="0-1" style="endArrow=none;html=1;rounded=0;" parent="1" edge="1">
          <mxGeometry relative="1" as="geometry">
            <mxPoint x="705.2752122286392" y="327.14985851424035" as="sourcePoint" />
            <mxPoint x="666.6522051171601" y="352.8327550369776" as="targetPoint" />
          </mxGeometry>
        </mxCell>
        <mxCell id="KcFt13vw23fe0HxH1k5O-26" value="1" style="endArrow=none;html=1;rounded=0;" parent="1" source="yKZ0u5D3wlYWX15F0u5D-3" target="KcFt13vw23fe0HxH1k5O-15" edge="1">
          <mxGeometry relative="1" as="geometry">
            <mxPoint x="660" y="420" as="sourcePoint" />
            <mxPoint x="820" y="420" as="targetPoint" />
          </mxGeometry>
        </mxCell>
        <mxCell id="KcFt13vw23fe0HxH1k5O-30" value="1" style="endArrow=none;html=1;rounded=0;" parent="1" source="yKZ0u5D3wlYWX15F0u5D-61" target="yKZ0u5D3wlYWX15F0u5D-5" edge="1">
          <mxGeometry relative="1" as="geometry">
            <mxPoint x="601" y="440" as="sourcePoint" />
            <mxPoint x="635" y="399" as="targetPoint" />
          </mxGeometry>
        </mxCell>
        <mxCell id="KcFt13vw23fe0HxH1k5O-31" value="duration" style="ellipse;whiteSpace=wrap;html=1;align=center;" parent="1" vertex="1">
          <mxGeometry x="570" y="870" width="100" height="40" as="geometry" />
        </mxCell>
        <mxCell id="KcFt13vw23fe0HxH1k5O-32" value="title" style="ellipse;whiteSpace=wrap;html=1;align=center;" parent="1" vertex="1">
          <mxGeometry x="640" y="830" width="100" height="40" as="geometry" />
        </mxCell>
        <mxCell id="KcFt13vw23fe0HxH1k5O-33" value="1" style="endArrow=none;html=1;rounded=0;exitX=0.5;exitY=0;exitDx=0;exitDy=0;" parent="1" source="KcFt13vw23fe0HxH1k5O-31" target="yKZ0u5D3wlYWX15F0u5D-5" edge="1">
          <mxGeometry relative="1" as="geometry">
            <mxPoint x="561" y="851" as="sourcePoint" />
            <mxPoint x="573" y="830" as="targetPoint" />
          </mxGeometry>
        </mxCell>
        <mxCell id="KcFt13vw23fe0HxH1k5O-34" value="1" style="endArrow=none;html=1;rounded=0;entryX=1;entryY=0.75;entryDx=0;entryDy=0;" parent="1" source="KcFt13vw23fe0HxH1k5O-32" target="yKZ0u5D3wlYWX15F0u5D-5" edge="1">
          <mxGeometry relative="1" as="geometry">
            <mxPoint x="571" y="861" as="sourcePoint" />
            <mxPoint x="583" y="840" as="targetPoint" />
          </mxGeometry>
        </mxCell>
        <mxCell id="KcFt13vw23fe0HxH1k5O-36" value="genre" style="ellipse;whiteSpace=wrap;html=1;align=center;" parent="1" vertex="1">
          <mxGeometry x="670" y="780" width="100" height="40" as="geometry" />
        </mxCell>
        <mxCell id="KcFt13vw23fe0HxH1k5O-37" value="N" style="endArrow=none;html=1;rounded=0;entryX=1;entryY=0.5;entryDx=0;entryDy=0;" parent="1" source="KcFt13vw23fe0HxH1k5O-36" target="yKZ0u5D3wlYWX15F0u5D-5" edge="1">
          <mxGeometry relative="1" as="geometry">
            <mxPoint x="581" y="871" as="sourcePoint" />
            <mxPoint x="593" y="850" as="targetPoint" />
          </mxGeometry>
        </mxCell>
        <mxCell id="KcFt13vw23fe0HxH1k5O-38" value="1" style="endArrow=none;html=1;rounded=0;" parent="1" source="yKZ0u5D3wlYWX15F0u5D-4" target="yKZ0u5D3wlYWX15F0u5D-55" edge="1">
          <mxGeometry relative="1" as="geometry">
            <mxPoint x="601" y="440" as="sourcePoint" />
            <mxPoint x="635" y="399" as="targetPoint" />
          </mxGeometry>
        </mxCell>
        <mxCell id="KcFt13vw23fe0HxH1k5O-39" value="title" style="ellipse;whiteSpace=wrap;html=1;align=center;" parent="1" vertex="1">
          <mxGeometry x="740" y="600" width="100" height="40" as="geometry" />
        </mxCell>
        <mxCell id="KcFt13vw23fe0HxH1k5O-40" value="1" style="endArrow=none;html=1;rounded=0;" parent="1" source="yKZ0u5D3wlYWX15F0u5D-4" target="KcFt13vw23fe0HxH1k5O-39" edge="1">
          <mxGeometry relative="1" as="geometry">
            <mxPoint x="635" y="615" as="sourcePoint" />
            <mxPoint x="680" y="602" as="targetPoint" />
          </mxGeometry>
        </mxCell>
        <mxCell id="KcFt13vw23fe0HxH1k5O-42" value="release date" style="ellipse;whiteSpace=wrap;html=1;align=center;" parent="1" vertex="1">
          <mxGeometry x="730" y="650" width="100" height="40" as="geometry" />
        </mxCell>
        <mxCell id="KcFt13vw23fe0HxH1k5O-43" value="cover image" style="ellipse;whiteSpace=wrap;html=1;align=center;" parent="1" vertex="1">
          <mxGeometry x="620" y="660" width="100" height="40" as="geometry" />
        </mxCell>
        <mxCell id="KcFt13vw23fe0HxH1k5O-44" value="1" style="endArrow=none;html=1;rounded=0;exitX=1;exitY=0.75;exitDx=0;exitDy=0;" parent="1" source="yKZ0u5D3wlYWX15F0u5D-4" target="KcFt13vw23fe0HxH1k5O-42" edge="1">
          <mxGeometry relative="1" as="geometry">
            <mxPoint x="635" y="640" as="sourcePoint" />
            <mxPoint x="751" y="633" as="targetPoint" />
          </mxGeometry>
        </mxCell>
        <mxCell id="KcFt13vw23fe0HxH1k5O-45" value="1" style="endArrow=none;html=1;rounded=0;" parent="1" source="KcFt13vw23fe0HxH1k5O-43" target="yKZ0u5D3wlYWX15F0u5D-4" edge="1">
          <mxGeometry relative="1" as="geometry">
            <mxPoint x="645" y="650" as="sourcePoint" />
            <mxPoint x="761" y="643" as="targetPoint" />
          </mxGeometry>
        </mxCell>
        <mxCell id="KcFt13vw23fe0HxH1k5O-48" value="name" style="ellipse;whiteSpace=wrap;html=1;align=center;" parent="1" vertex="1">
          <mxGeometry x="90" y="600" width="100" height="40" as="geometry" />
        </mxCell>
        <mxCell id="KcFt13vw23fe0HxH1k5O-49" value="1" style="endArrow=none;html=1;rounded=0;" parent="1" source="yKZ0u5D3wlYWX15F0u5D-6" target="yKZ0u5D3wlYWX15F0u5D-58" edge="1">
          <mxGeometry relative="1" as="geometry">
            <mxPoint x="340" y="410" as="sourcePoint" />
            <mxPoint x="308" y="430" as="targetPoint" />
          </mxGeometry>
        </mxCell>
        <mxCell id="KcFt13vw23fe0HxH1k5O-50" value="1" style="endArrow=none;html=1;rounded=0;" parent="1" source="yKZ0u5D3wlYWX15F0u5D-6" target="KcFt13vw23fe0HxH1k5O-48" edge="1">
          <mxGeometry relative="1" as="geometry">
            <mxPoint x="230" y="620" as="sourcePoint" />
            <mxPoint x="206" y="617" as="targetPoint" />
          </mxGeometry>
        </mxCell>
        <mxCell id="KcFt13vw23fe0HxH1k5O-51" value="creation date" style="ellipse;whiteSpace=wrap;html=1;align=center;" parent="1" vertex="1">
          <mxGeometry x="100" y="650" width="100" height="40" as="geometry" />
        </mxCell>
        <mxCell id="KcFt13vw23fe0HxH1k5O-52" value="1" style="endArrow=none;html=1;rounded=0;" parent="1" source="yKZ0u5D3wlYWX15F0u5D-6" target="KcFt13vw23fe0HxH1k5O-51" edge="1">
          <mxGeometry relative="1" as="geometry">
            <mxPoint x="235" y="630" as="sourcePoint" />
            <mxPoint x="200" y="630" as="targetPoint" />
          </mxGeometry>
        </mxCell>
        <mxCell id="KcFt13vw23fe0HxH1k5O-53" value="" style="shape=link;html=1;rounded=0;exitX=0.5;exitY=1;exitDx=0;exitDy=0;entryX=0;entryY=0;entryDx=0;entryDy=0;" parent="1" source="yKZ0u5D3wlYWX15F0u5D-7" target="yKZ0u5D3wlYWX15F0u5D-5" edge="1">
          <mxGeometry relative="1" as="geometry">
            <mxPoint x="340" y="680" as="sourcePoint" />
            <mxPoint x="480" y="750" as="targetPoint" />
          </mxGeometry>
        </mxCell>
        <mxCell id="KcFt13vw23fe0HxH1k5O-54" value="N" style="resizable=0;html=1;whiteSpace=wrap;align=right;verticalAlign=bottom;" parent="KcFt13vw23fe0HxH1k5O-53" connectable="0" vertex="1">
          <mxGeometry x="1" relative="1" as="geometry">
            <mxPoint x="-70" y="-200" as="offset" />
          </mxGeometry>
        </mxCell>
        <mxCell id="KcFt13vw23fe0HxH1k5O-66" value="" style="shape=link;html=1;rounded=0;entryX=0.5;entryY=0;entryDx=0;entryDy=0;exitX=0.5;exitY=1;exitDx=0;exitDy=0;" parent="1" source="yKZ0u5D3wlYWX15F0u5D-13" target="yKZ0u5D3wlYWX15F0u5D-4" edge="1">
          <mxGeometry relative="1" as="geometry">
            <mxPoint x="574.76" y="560" as="sourcePoint" />
            <mxPoint x="574.76" y="590" as="targetPoint" />
          </mxGeometry>
        </mxCell>
        <mxCell id="KcFt13vw23fe0HxH1k5O-67" value="M" style="resizable=0;html=1;whiteSpace=wrap;align=right;verticalAlign=bottom;" parent="KcFt13vw23fe0HxH1k5O-66" connectable="0" vertex="1">
          <mxGeometry x="1" relative="1" as="geometry">
            <mxPoint x="15" as="offset" />
          </mxGeometry>
        </mxCell>
        <mxCell id="KcFt13vw23fe0HxH1k5O-69" value="" style="shape=link;html=1;rounded=0;entryX=0.5;entryY=0;entryDx=0;entryDy=0;exitX=0.5;exitY=1;exitDx=0;exitDy=0;" parent="1" source="yKZ0u5D3wlYWX15F0u5D-4" target="yKZ0u5D3wlYWX15F0u5D-17" edge="1">
          <mxGeometry relative="1" as="geometry">
            <mxPoint x="585" y="480" as="sourcePoint" />
            <mxPoint x="585" y="510" as="targetPoint" />
          </mxGeometry>
        </mxCell>
        <mxCell id="KcFt13vw23fe0HxH1k5O-70" value="N" style="resizable=0;html=1;whiteSpace=wrap;align=right;verticalAlign=bottom;" parent="KcFt13vw23fe0HxH1k5O-69" connectable="0" vertex="1">
          <mxGeometry x="1" relative="1" as="geometry">
            <mxPoint x="15" as="offset" />
          </mxGeometry>
        </mxCell>
        <mxCell id="KcFt13vw23fe0HxH1k5O-71" value="" style="endArrow=none;html=1;rounded=0;exitX=0.95;exitY=0.5;exitDx=0;exitDy=0;entryX=0;entryY=0.5;entryDx=0;entryDy=0;exitPerimeter=0;" parent="1" source="yKZ0u5D3wlYWX15F0u5D-18" target="yKZ0u5D3wlYWX15F0u5D-5" edge="1">
          <mxGeometry relative="1" as="geometry">
            <mxPoint x="465" y="660" as="sourcePoint" />
            <mxPoint x="535" y="790" as="targetPoint" />
          </mxGeometry>
        </mxCell>
        <mxCell id="KcFt13vw23fe0HxH1k5O-72" value="M" style="resizable=0;html=1;whiteSpace=wrap;align=right;verticalAlign=bottom;" parent="KcFt13vw23fe0HxH1k5O-71" connectable="0" vertex="1">
          <mxGeometry x="1" relative="1" as="geometry">
            <mxPoint x="5" y="-40" as="offset" />
          </mxGeometry>
        </mxCell>
        <mxCell id="KcFt13vw23fe0HxH1k5O-73" value="" style="endArrow=none;html=1;rounded=0;exitX=0.5;exitY=1;exitDx=0;exitDy=0;entryX=0.5;entryY=0;entryDx=0;entryDy=0;" parent="1" source="yKZ0u5D3wlYWX15F0u5D-6" target="yKZ0u5D3wlYWX15F0u5D-18" edge="1">
          <mxGeometry relative="1" as="geometry">
            <mxPoint x="330" y="450" as="sourcePoint" />
            <mxPoint x="390" y="460" as="targetPoint" />
          </mxGeometry>
        </mxCell>
        <mxCell id="KcFt13vw23fe0HxH1k5O-74" value="N" style="resizable=0;html=1;whiteSpace=wrap;align=right;verticalAlign=bottom;" parent="KcFt13vw23fe0HxH1k5O-73" connectable="0" vertex="1">
          <mxGeometry x="1" relative="1" as="geometry">
            <mxPoint x="10" y="-5" as="offset" />
          </mxGeometry>
        </mxCell>
        <mxCell id="KcFt13vw23fe0HxH1k5O-75" value="" style="shape=link;html=1;rounded=0;entryX=0.5;entryY=0;entryDx=0;entryDy=0;exitX=0.5;exitY=1;exitDx=0;exitDy=0;" parent="1" source="yKZ0u5D3wlYWX15F0u5D-17" target="yKZ0u5D3wlYWX15F0u5D-5" edge="1">
          <mxGeometry relative="1" as="geometry">
            <mxPoint x="585" y="650" as="sourcePoint" />
            <mxPoint x="585" y="690" as="targetPoint" />
          </mxGeometry>
        </mxCell>
        <mxCell id="KcFt13vw23fe0HxH1k5O-76" value="M" style="resizable=0;html=1;whiteSpace=wrap;align=right;verticalAlign=bottom;" parent="KcFt13vw23fe0HxH1k5O-75" connectable="0" vertex="1">
          <mxGeometry x="1" relative="1" as="geometry">
            <mxPoint x="15" as="offset" />
          </mxGeometry>
        </mxCell>
        <mxCell id="KcFt13vw23fe0HxH1k5O-81" value="" style="endArrow=none;html=1;rounded=0;exitX=0;exitY=0.5;exitDx=0;exitDy=0;entryX=1;entryY=0.5;entryDx=0;entryDy=0;" parent="1" source="yKZ0u5D3wlYWX15F0u5D-16" target="yKZ0u5D3wlYWX15F0u5D-2" edge="1">
          <mxGeometry relative="1" as="geometry">
            <mxPoint x="-50" y="530" as="sourcePoint" />
            <mxPoint x="110" y="530" as="targetPoint" />
          </mxGeometry>
        </mxCell>
        <mxCell id="KcFt13vw23fe0HxH1k5O-82" value="1" style="resizable=0;html=1;whiteSpace=wrap;align=right;verticalAlign=bottom;" parent="KcFt13vw23fe0HxH1k5O-81" connectable="0" vertex="1">
          <mxGeometry x="1" relative="1" as="geometry">
            <mxPoint x="10" as="offset" />
          </mxGeometry>
        </mxCell>
        <mxCell id="KcFt13vw23fe0HxH1k5O-84" value="" style="shape=link;html=1;rounded=0;exitX=1;exitY=0.5;exitDx=0;exitDy=0;entryX=0;entryY=0.5;entryDx=0;entryDy=0;" parent="1" source="yKZ0u5D3wlYWX15F0u5D-16" target="yKZ0u5D3wlYWX15F0u5D-1" edge="1">
          <mxGeometry relative="1" as="geometry">
            <mxPoint x="70" y="480" as="sourcePoint" />
            <mxPoint x="230" y="480" as="targetPoint" />
          </mxGeometry>
        </mxCell>
        <mxCell id="KcFt13vw23fe0HxH1k5O-85" value="N" style="resizable=0;html=1;whiteSpace=wrap;align=right;verticalAlign=bottom;" parent="KcFt13vw23fe0HxH1k5O-84" connectable="0" vertex="1">
          <mxGeometry x="1" relative="1" as="geometry" />
        </mxCell>
        <mxCell id="KcFt13vw23fe0HxH1k5O-86" value="" style="endArrow=none;html=1;rounded=0;" parent="1" source="yKZ0u5D3wlYWX15F0u5D-1" target="yKZ0u5D3wlYWX15F0u5D-14" edge="1">
          <mxGeometry relative="1" as="geometry">
            <mxPoint x="200" y="450" as="sourcePoint" />
            <mxPoint x="210" y="490" as="targetPoint" />
          </mxGeometry>
        </mxCell>
        <mxCell id="KcFt13vw23fe0HxH1k5O-87" value="N" style="resizable=0;html=1;whiteSpace=wrap;align=right;verticalAlign=bottom;" parent="KcFt13vw23fe0HxH1k5O-86" connectable="0" vertex="1">
          <mxGeometry x="1" relative="1" as="geometry" />
        </mxCell>
        <mxCell id="KcFt13vw23fe0HxH1k5O-90" value="" style="shape=link;html=1;rounded=0;entryX=0.5;entryY=0;entryDx=0;entryDy=0;exitX=0.5;exitY=1;exitDx=0;exitDy=0;" parent="1" source="yKZ0u5D3wlYWX15F0u5D-14" target="yKZ0u5D3wlYWX15F0u5D-6" edge="1">
          <mxGeometry relative="1" as="geometry">
            <mxPoint x="585" y="750" as="sourcePoint" />
            <mxPoint x="585" y="790" as="targetPoint" />
          </mxGeometry>
        </mxCell>
        <mxCell id="KcFt13vw23fe0HxH1k5O-91" value="M" style="resizable=0;html=1;whiteSpace=wrap;align=right;verticalAlign=bottom;" parent="KcFt13vw23fe0HxH1k5O-90" connectable="0" vertex="1">
          <mxGeometry x="1" relative="1" as="geometry">
            <mxPoint x="15" as="offset" />
          </mxGeometry>
        </mxCell>
        <mxCell id="KcFt13vw23fe0HxH1k5O-92" value="M" style="resizable=0;html=1;whiteSpace=wrap;align=right;verticalAlign=bottom;" parent="1" connectable="0" vertex="1">
          <mxGeometry x="515.0023809523807" y="800" as="geometry" />
        </mxCell>
        <mxCell id="x2v_Wdm-Bi8G_KDgG7ra-1" value="Student" style="whiteSpace=wrap;html=1;align=center;" vertex="1" parent="1">
          <mxGeometry x="-1250" y="280" width="100" height="40" as="geometry" />
        </mxCell>
        <mxCell id="x2v_Wdm-Bi8G_KDgG7ra-82" style="edgeStyle=none;shape=connector;curved=1;rounded=0;orthogonalLoop=1;jettySize=auto;html=1;exitX=0.5;exitY=1;exitDx=0;exitDy=0;entryX=0.5;entryY=0;entryDx=0;entryDy=0;strokeColor=default;align=center;verticalAlign=middle;fontFamily=Helvetica;fontSize=12;fontColor=default;labelBackgroundColor=default;startSize=8;endArrow=classic;endFill=1;endSize=8;" edge="1" parent="1" source="x2v_Wdm-Bi8G_KDgG7ra-2" target="x2v_Wdm-Bi8G_KDgG7ra-7">
          <mxGeometry relative="1" as="geometry" />
        </mxCell>
        <mxCell id="x2v_Wdm-Bi8G_KDgG7ra-84" style="edgeStyle=none;shape=connector;curved=1;rounded=0;orthogonalLoop=1;jettySize=auto;html=1;strokeColor=default;align=center;verticalAlign=middle;fontFamily=Helvetica;fontSize=12;fontColor=default;labelBackgroundColor=default;startSize=8;endArrow=none;endFill=0;endSize=8;" edge="1" parent="1" source="x2v_Wdm-Bi8G_KDgG7ra-2" target="x2v_Wdm-Bi8G_KDgG7ra-83">
          <mxGeometry relative="1" as="geometry" />
        </mxCell>
        <mxCell id="x2v_Wdm-Bi8G_KDgG7ra-86" style="edgeStyle=none;shape=connector;curved=1;rounded=0;orthogonalLoop=1;jettySize=auto;html=1;strokeColor=default;align=center;verticalAlign=middle;fontFamily=Helvetica;fontSize=12;fontColor=default;labelBackgroundColor=default;startSize=8;endArrow=none;endFill=0;endSize=8;" edge="1" parent="1" source="x2v_Wdm-Bi8G_KDgG7ra-2" target="x2v_Wdm-Bi8G_KDgG7ra-85">
          <mxGeometry relative="1" as="geometry" />
        </mxCell>
        <mxCell id="x2v_Wdm-Bi8G_KDgG7ra-2" value="Friendship" style="whiteSpace=wrap;html=1;align=center;" vertex="1" parent="1">
          <mxGeometry x="-1250" y="80" width="100" height="40" as="geometry" />
        </mxCell>
        <mxCell id="x2v_Wdm-Bi8G_KDgG7ra-3" value="Study Group" style="whiteSpace=wrap;html=1;align=center;" vertex="1" parent="1">
          <mxGeometry x="-880" y="280" width="100" height="40" as="geometry" />
        </mxCell>
        <mxCell id="x2v_Wdm-Bi8G_KDgG7ra-4" value="Event" style="whiteSpace=wrap;html=1;align=center;" vertex="1" parent="1">
          <mxGeometry x="-1250" y="480" width="100" height="40" as="geometry" />
        </mxCell>
        <mxCell id="x2v_Wdm-Bi8G_KDgG7ra-5" value="Post" style="whiteSpace=wrap;html=1;align=center;" vertex="1" parent="1">
          <mxGeometry x="-1620" y="280" width="100" height="40" as="geometry" />
        </mxCell>
        <mxCell id="x2v_Wdm-Bi8G_KDgG7ra-6" value="Comment" style="whiteSpace=wrap;html=1;align=center;" vertex="1" parent="1">
          <mxGeometry x="-1620" y="80" width="100" height="40" as="geometry" />
        </mxCell>
        <mxCell id="x2v_Wdm-Bi8G_KDgG7ra-7" value="Friends with" style="shape=rhombus;perimeter=rhombusPerimeter;whiteSpace=wrap;html=1;align=center;" vertex="1" parent="1">
          <mxGeometry x="-1260" y="170" width="120" height="60" as="geometry" />
        </mxCell>
        <mxCell id="x2v_Wdm-Bi8G_KDgG7ra-8" value="Member of" style="shape=rhombus;perimeter=rhombusPerimeter;whiteSpace=wrap;html=1;align=center;" vertex="1" parent="1">
          <mxGeometry x="-1080" y="270" width="120" height="60" as="geometry" />
        </mxCell>
        <mxCell id="x2v_Wdm-Bi8G_KDgG7ra-9" value="Makes" style="shape=rhombus;perimeter=rhombusPerimeter;whiteSpace=wrap;html=1;align=center;" vertex="1" parent="1">
          <mxGeometry x="-1180" y="370" width="120" height="60" as="geometry" />
        </mxCell>
        <mxCell id="x2v_Wdm-Bi8G_KDgG7ra-10" value="Has comment" style="shape=rhombus;perimeter=rhombusPerimeter;whiteSpace=wrap;html=1;align=center;" vertex="1" parent="1">
          <mxGeometry x="-1630" y="170" width="120" height="60" as="geometry" />
        </mxCell>
        <mxCell id="x2v_Wdm-Bi8G_KDgG7ra-11" value="Creates" style="shape=rhombus;perimeter=rhombusPerimeter;whiteSpace=wrap;html=1;align=center;" vertex="1" parent="1">
          <mxGeometry x="-1440" y="270" width="120" height="60" as="geometry" />
        </mxCell>
        <mxCell id="x2v_Wdm-Bi8G_KDgG7ra-13" value="" style="endArrow=none;html=1;rounded=0;fontSize=12;curved=1;exitX=0;exitY=0.5;exitDx=0;exitDy=0;entryX=0;entryY=0;entryDx=0;entryDy=0;shape=link;" edge="1" parent="1" source="x2v_Wdm-Bi8G_KDgG7ra-7" target="x2v_Wdm-Bi8G_KDgG7ra-1">
          <mxGeometry relative="1" as="geometry">
            <mxPoint x="-1480" y="220" as="sourcePoint" />
            <mxPoint x="-1320" y="220" as="targetPoint" />
          </mxGeometry>
        </mxCell>
        <mxCell id="x2v_Wdm-Bi8G_KDgG7ra-14" value="N" style="resizable=0;html=1;whiteSpace=wrap;align=right;verticalAlign=bottom;" connectable="0" vertex="1" parent="x2v_Wdm-Bi8G_KDgG7ra-13">
          <mxGeometry x="1" relative="1" as="geometry">
            <mxPoint x="10" y="-10" as="offset" />
          </mxGeometry>
        </mxCell>
        <mxCell id="x2v_Wdm-Bi8G_KDgG7ra-15" value="" style="endArrow=none;html=1;rounded=0;fontSize=12;curved=1;exitX=1;exitY=0.5;exitDx=0;exitDy=0;entryX=1;entryY=0;entryDx=0;entryDy=0;shape=link;" edge="1" parent="1" source="x2v_Wdm-Bi8G_KDgG7ra-7" target="x2v_Wdm-Bi8G_KDgG7ra-1">
          <mxGeometry relative="1" as="geometry">
            <mxPoint x="-1250" y="210" as="sourcePoint" />
            <mxPoint x="-1240" y="300" as="targetPoint" />
          </mxGeometry>
        </mxCell>
        <mxCell id="x2v_Wdm-Bi8G_KDgG7ra-16" value="M" style="resizable=0;html=1;whiteSpace=wrap;align=right;verticalAlign=bottom;" connectable="0" vertex="1" parent="x2v_Wdm-Bi8G_KDgG7ra-15">
          <mxGeometry x="1" relative="1" as="geometry">
            <mxPoint y="-10" as="offset" />
          </mxGeometry>
        </mxCell>
        <mxCell id="x2v_Wdm-Bi8G_KDgG7ra-17" value="attends" style="shape=rhombus;perimeter=rhombusPerimeter;whiteSpace=wrap;html=1;align=center;" vertex="1" parent="1">
          <mxGeometry x="-1335" y="370" width="120" height="60" as="geometry" />
        </mxCell>
        <mxCell id="x2v_Wdm-Bi8G_KDgG7ra-18" value="Made by" style="shape=rhombus;perimeter=rhombusPerimeter;whiteSpace=wrap;html=1;align=center;" vertex="1" parent="1">
          <mxGeometry x="-1440" y="170" width="120" height="60" as="geometry" />
        </mxCell>
        <mxCell id="x2v_Wdm-Bi8G_KDgG7ra-20" value="" style="endArrow=none;html=1;rounded=0;fontSize=12;startSize=8;endSize=8;curved=1;exitX=1;exitY=0.5;exitDx=0;exitDy=0;entryX=0;entryY=0.5;entryDx=0;entryDy=0;" edge="1" parent="1" source="x2v_Wdm-Bi8G_KDgG7ra-1" target="x2v_Wdm-Bi8G_KDgG7ra-8">
          <mxGeometry relative="1" as="geometry">
            <mxPoint x="-1250" y="210" as="sourcePoint" />
            <mxPoint x="-1240" y="290" as="targetPoint" />
          </mxGeometry>
        </mxCell>
        <mxCell id="x2v_Wdm-Bi8G_KDgG7ra-21" value="N" style="resizable=0;html=1;whiteSpace=wrap;align=right;verticalAlign=bottom;" connectable="0" vertex="1" parent="x2v_Wdm-Bi8G_KDgG7ra-20">
          <mxGeometry x="1" relative="1" as="geometry">
            <mxPoint as="offset" />
          </mxGeometry>
        </mxCell>
        <mxCell id="x2v_Wdm-Bi8G_KDgG7ra-22" value="" style="endArrow=none;html=1;rounded=0;fontSize=12;curved=1;exitX=1;exitY=0.5;exitDx=0;exitDy=0;entryX=0;entryY=0.5;entryDx=0;entryDy=0;shape=link;" edge="1" parent="1" source="x2v_Wdm-Bi8G_KDgG7ra-8" target="x2v_Wdm-Bi8G_KDgG7ra-3">
          <mxGeometry relative="1" as="geometry">
            <mxPoint x="-1130" y="210" as="sourcePoint" />
            <mxPoint x="-1140" y="290" as="targetPoint" />
          </mxGeometry>
        </mxCell>
        <mxCell id="x2v_Wdm-Bi8G_KDgG7ra-23" value="M" style="resizable=0;html=1;whiteSpace=wrap;align=right;verticalAlign=bottom;" connectable="0" vertex="1" parent="x2v_Wdm-Bi8G_KDgG7ra-22">
          <mxGeometry x="1" relative="1" as="geometry">
            <mxPoint x="-10" as="offset" />
          </mxGeometry>
        </mxCell>
        <mxCell id="x2v_Wdm-Bi8G_KDgG7ra-24" value="" style="endArrow=none;html=1;rounded=0;fontSize=12;startSize=8;endSize=8;curved=1;exitX=0;exitY=1;exitDx=0;exitDy=0;entryX=0.5;entryY=0;entryDx=0;entryDy=0;" edge="1" parent="1" source="x2v_Wdm-Bi8G_KDgG7ra-1" target="x2v_Wdm-Bi8G_KDgG7ra-17">
          <mxGeometry relative="1" as="geometry">
            <mxPoint x="-1290" y="359" as="sourcePoint" />
            <mxPoint x="-1220" y="359" as="targetPoint" />
          </mxGeometry>
        </mxCell>
        <mxCell id="x2v_Wdm-Bi8G_KDgG7ra-25" value="N" style="resizable=0;html=1;whiteSpace=wrap;align=right;verticalAlign=bottom;" connectable="0" vertex="1" parent="x2v_Wdm-Bi8G_KDgG7ra-24">
          <mxGeometry x="1" relative="1" as="geometry">
            <mxPoint as="offset" />
          </mxGeometry>
        </mxCell>
        <mxCell id="x2v_Wdm-Bi8G_KDgG7ra-26" value="" style="endArrow=none;html=1;rounded=0;fontSize=12;startSize=8;endSize=8;curved=1;exitX=1;exitY=1;exitDx=0;exitDy=0;entryX=0.5;entryY=0;entryDx=0;entryDy=0;" edge="1" parent="1" source="x2v_Wdm-Bi8G_KDgG7ra-1" target="x2v_Wdm-Bi8G_KDgG7ra-9">
          <mxGeometry relative="1" as="geometry">
            <mxPoint x="-1240" y="330" as="sourcePoint" />
            <mxPoint x="-1265" y="390" as="targetPoint" />
          </mxGeometry>
        </mxCell>
        <mxCell id="x2v_Wdm-Bi8G_KDgG7ra-27" value="N" style="resizable=0;html=1;whiteSpace=wrap;align=right;verticalAlign=bottom;" connectable="0" vertex="1" parent="x2v_Wdm-Bi8G_KDgG7ra-26">
          <mxGeometry x="1" relative="1" as="geometry">
            <mxPoint as="offset" />
          </mxGeometry>
        </mxCell>
        <mxCell id="x2v_Wdm-Bi8G_KDgG7ra-28" value="" style="endArrow=none;html=1;rounded=0;fontSize=12;startSize=8;endSize=8;curved=1;exitX=0.5;exitY=1;exitDx=0;exitDy=0;entryX=0;entryY=0;entryDx=0;entryDy=0;" edge="1" parent="1" source="x2v_Wdm-Bi8G_KDgG7ra-17" target="x2v_Wdm-Bi8G_KDgG7ra-4">
          <mxGeometry relative="1" as="geometry">
            <mxPoint x="-950" y="310" as="sourcePoint" />
            <mxPoint x="-870" y="310" as="targetPoint" />
          </mxGeometry>
        </mxCell>
        <mxCell id="x2v_Wdm-Bi8G_KDgG7ra-29" value="M" style="resizable=0;html=1;whiteSpace=wrap;align=right;verticalAlign=bottom;" connectable="0" vertex="1" parent="x2v_Wdm-Bi8G_KDgG7ra-28">
          <mxGeometry x="1" relative="1" as="geometry">
            <mxPoint x="-10" as="offset" />
          </mxGeometry>
        </mxCell>
        <mxCell id="x2v_Wdm-Bi8G_KDgG7ra-30" value="" style="endArrow=none;html=1;rounded=0;fontSize=12;curved=1;exitX=0.5;exitY=1;exitDx=0;exitDy=0;entryX=1;entryY=0;entryDx=0;entryDy=0;shape=link;" edge="1" parent="1" source="x2v_Wdm-Bi8G_KDgG7ra-9" target="x2v_Wdm-Bi8G_KDgG7ra-4">
          <mxGeometry relative="1" as="geometry">
            <mxPoint x="-1265" y="450" as="sourcePoint" />
            <mxPoint x="-1230" y="490" as="targetPoint" />
          </mxGeometry>
        </mxCell>
        <mxCell id="x2v_Wdm-Bi8G_KDgG7ra-31" value="M" style="resizable=0;html=1;whiteSpace=wrap;align=right;verticalAlign=bottom;" connectable="0" vertex="1" parent="x2v_Wdm-Bi8G_KDgG7ra-30">
          <mxGeometry x="1" relative="1" as="geometry">
            <mxPoint x="-10" as="offset" />
          </mxGeometry>
        </mxCell>
        <mxCell id="x2v_Wdm-Bi8G_KDgG7ra-32" value="" style="endArrow=none;html=1;rounded=0;fontSize=12;startSize=8;endSize=8;curved=1;exitX=0.5;exitY=0;exitDx=0;exitDy=0;entryX=0.5;entryY=1;entryDx=0;entryDy=0;" edge="1" parent="1" source="x2v_Wdm-Bi8G_KDgG7ra-5" target="x2v_Wdm-Bi8G_KDgG7ra-10">
          <mxGeometry relative="1" as="geometry">
            <mxPoint x="-1570" y="380" as="sourcePoint" />
            <mxPoint x="-1410" y="380" as="targetPoint" />
          </mxGeometry>
        </mxCell>
        <mxCell id="x2v_Wdm-Bi8G_KDgG7ra-33" value="1" style="resizable=0;html=1;whiteSpace=wrap;align=right;verticalAlign=bottom;" connectable="0" vertex="1" parent="x2v_Wdm-Bi8G_KDgG7ra-32">
          <mxGeometry x="1" relative="1" as="geometry">
            <mxPoint x="10" y="40" as="offset" />
          </mxGeometry>
        </mxCell>
        <mxCell id="x2v_Wdm-Bi8G_KDgG7ra-34" value="" style="endArrow=none;html=1;rounded=0;fontSize=12;curved=1;exitX=0.5;exitY=1;exitDx=0;exitDy=0;shape=link;" edge="1" parent="1" source="x2v_Wdm-Bi8G_KDgG7ra-6" target="x2v_Wdm-Bi8G_KDgG7ra-10">
          <mxGeometry relative="1" as="geometry">
            <mxPoint x="-1610" y="160" as="sourcePoint" />
            <mxPoint x="-1450" y="160" as="targetPoint" />
          </mxGeometry>
        </mxCell>
        <mxCell id="x2v_Wdm-Bi8G_KDgG7ra-35" value="N" style="resizable=0;html=1;whiteSpace=wrap;align=right;verticalAlign=bottom;" connectable="0" vertex="1" parent="x2v_Wdm-Bi8G_KDgG7ra-34">
          <mxGeometry x="1" relative="1" as="geometry" />
        </mxCell>
        <mxCell id="x2v_Wdm-Bi8G_KDgG7ra-36" value="" style="endArrow=none;html=1;rounded=0;fontSize=12;curved=1;exitX=1;exitY=0.5;exitDx=0;exitDy=0;shape=link;" edge="1" parent="1" source="x2v_Wdm-Bi8G_KDgG7ra-5" target="x2v_Wdm-Bi8G_KDgG7ra-11">
          <mxGeometry relative="1" as="geometry">
            <mxPoint x="-1530" y="330" as="sourcePoint" />
            <mxPoint x="-1370" y="330" as="targetPoint" />
          </mxGeometry>
        </mxCell>
        <mxCell id="x2v_Wdm-Bi8G_KDgG7ra-37" value="N" style="resizable=0;html=1;whiteSpace=wrap;align=right;verticalAlign=bottom;" connectable="0" vertex="1" parent="x2v_Wdm-Bi8G_KDgG7ra-36">
          <mxGeometry x="1" relative="1" as="geometry" />
        </mxCell>
        <mxCell id="x2v_Wdm-Bi8G_KDgG7ra-38" value="" style="endArrow=none;html=1;rounded=0;fontSize=12;startSize=8;endSize=8;curved=1;" edge="1" parent="1" source="x2v_Wdm-Bi8G_KDgG7ra-11" target="x2v_Wdm-Bi8G_KDgG7ra-1">
          <mxGeometry relative="1" as="geometry">
            <mxPoint x="-1490" y="360" as="sourcePoint" />
            <mxPoint x="-1330" y="360" as="targetPoint" />
          </mxGeometry>
        </mxCell>
        <mxCell id="x2v_Wdm-Bi8G_KDgG7ra-39" value="1" style="resizable=0;html=1;whiteSpace=wrap;align=right;verticalAlign=bottom;" connectable="0" vertex="1" parent="x2v_Wdm-Bi8G_KDgG7ra-38">
          <mxGeometry x="1" relative="1" as="geometry" />
        </mxCell>
        <mxCell id="x2v_Wdm-Bi8G_KDgG7ra-42" value="" style="endArrow=none;html=1;rounded=0;fontSize=12;startSize=8;endSize=8;curved=1;entryX=0;entryY=0;entryDx=0;entryDy=0;" edge="1" parent="1" source="x2v_Wdm-Bi8G_KDgG7ra-18" target="x2v_Wdm-Bi8G_KDgG7ra-1">
          <mxGeometry relative="1" as="geometry">
            <mxPoint x="-1450" y="250" as="sourcePoint" />
            <mxPoint x="-1290" y="250" as="targetPoint" />
          </mxGeometry>
        </mxCell>
        <mxCell id="x2v_Wdm-Bi8G_KDgG7ra-43" value="1" style="resizable=0;html=1;whiteSpace=wrap;align=right;verticalAlign=bottom;" connectable="0" vertex="1" parent="x2v_Wdm-Bi8G_KDgG7ra-42">
          <mxGeometry x="1" relative="1" as="geometry">
            <mxPoint x="-10" y="-10" as="offset" />
          </mxGeometry>
        </mxCell>
        <mxCell id="x2v_Wdm-Bi8G_KDgG7ra-47" value="" style="endArrow=none;html=1;rounded=0;fontSize=12;curved=1;exitX=1;exitY=1;exitDx=0;exitDy=0;shape=link;" edge="1" parent="1" source="x2v_Wdm-Bi8G_KDgG7ra-6" target="x2v_Wdm-Bi8G_KDgG7ra-18">
          <mxGeometry relative="1" as="geometry">
            <mxPoint x="-1510" y="60" as="sourcePoint" />
            <mxPoint x="-1350" y="60" as="targetPoint" />
          </mxGeometry>
        </mxCell>
        <mxCell id="x2v_Wdm-Bi8G_KDgG7ra-48" value="N" style="resizable=0;html=1;whiteSpace=wrap;align=right;verticalAlign=bottom;" connectable="0" vertex="1" parent="x2v_Wdm-Bi8G_KDgG7ra-47">
          <mxGeometry x="1" relative="1" as="geometry" />
        </mxCell>
        <mxCell id="x2v_Wdm-Bi8G_KDgG7ra-52" style="edgeStyle=none;curved=1;rounded=0;orthogonalLoop=1;jettySize=auto;html=1;exitX=1;exitY=1;exitDx=0;exitDy=0;entryX=0;entryY=0;entryDx=0;entryDy=0;fontSize=12;startSize=8;endSize=8;endArrow=none;endFill=0;" edge="1" parent="1" source="x2v_Wdm-Bi8G_KDgG7ra-49" target="x2v_Wdm-Bi8G_KDgG7ra-50">
          <mxGeometry relative="1" as="geometry" />
        </mxCell>
        <mxCell id="x2v_Wdm-Bi8G_KDgG7ra-49" value="&lt;u&gt;ID&lt;/u&gt;" style="ellipse;whiteSpace=wrap;html=1;align=center;" vertex="1" parent="1">
          <mxGeometry x="-1120" width="100" height="40" as="geometry" />
        </mxCell>
        <mxCell id="x2v_Wdm-Bi8G_KDgG7ra-51" style="edgeStyle=none;curved=1;rounded=0;orthogonalLoop=1;jettySize=auto;html=1;exitX=0;exitY=1;exitDx=0;exitDy=0;entryX=1;entryY=0;entryDx=0;entryDy=0;fontSize=12;startSize=8;endSize=8;" edge="1" parent="1" source="x2v_Wdm-Bi8G_KDgG7ra-50" target="x2v_Wdm-Bi8G_KDgG7ra-1">
          <mxGeometry relative="1" as="geometry" />
        </mxCell>
        <mxCell id="x2v_Wdm-Bi8G_KDgG7ra-50" value="Attribute anchor" style="ellipse;whiteSpace=wrap;html=1;align=center;" vertex="1" parent="1">
          <mxGeometry x="-970" y="50" width="100" height="40" as="geometry" />
        </mxCell>
        <mxCell id="x2v_Wdm-Bi8G_KDgG7ra-68" style="edgeStyle=none;shape=connector;curved=1;rounded=0;orthogonalLoop=1;jettySize=auto;html=1;exitX=0.5;exitY=1;exitDx=0;exitDy=0;strokeColor=default;align=center;verticalAlign=middle;fontFamily=Helvetica;fontSize=12;fontColor=default;labelBackgroundColor=default;startSize=8;endArrow=none;endFill=0;endSize=8;" edge="1" parent="1" source="x2v_Wdm-Bi8G_KDgG7ra-53" target="x2v_Wdm-Bi8G_KDgG7ra-50">
          <mxGeometry relative="1" as="geometry" />
        </mxCell>
        <mxCell id="x2v_Wdm-Bi8G_KDgG7ra-53" value="Name" style="ellipse;whiteSpace=wrap;html=1;align=center;fontFamily=Helvetica;fontSize=12;fontColor=default;labelBackgroundColor=default;" vertex="1" parent="1">
          <mxGeometry x="-1060" y="-40" width="100" height="40" as="geometry" />
        </mxCell>
        <mxCell id="x2v_Wdm-Bi8G_KDgG7ra-69" style="edgeStyle=none;shape=connector;curved=1;rounded=0;orthogonalLoop=1;jettySize=auto;html=1;exitX=0.5;exitY=1;exitDx=0;exitDy=0;strokeColor=default;align=center;verticalAlign=middle;fontFamily=Helvetica;fontSize=12;fontColor=default;labelBackgroundColor=default;startSize=8;endArrow=none;endFill=0;endSize=8;" edge="1" parent="1" source="x2v_Wdm-Bi8G_KDgG7ra-54" target="x2v_Wdm-Bi8G_KDgG7ra-50">
          <mxGeometry relative="1" as="geometry" />
        </mxCell>
        <mxCell id="x2v_Wdm-Bi8G_KDgG7ra-54" value="Email" style="ellipse;whiteSpace=wrap;html=1;align=center;fontFamily=Helvetica;fontSize=12;fontColor=default;labelBackgroundColor=default;" vertex="1" parent="1">
          <mxGeometry x="-990" y="-80" width="100" height="40" as="geometry" />
        </mxCell>
        <mxCell id="x2v_Wdm-Bi8G_KDgG7ra-67" style="edgeStyle=none;shape=connector;curved=1;rounded=0;orthogonalLoop=1;jettySize=auto;html=1;exitX=1;exitY=1;exitDx=0;exitDy=0;strokeColor=default;align=center;verticalAlign=middle;fontFamily=Helvetica;fontSize=12;fontColor=default;labelBackgroundColor=default;startSize=8;endArrow=none;endFill=0;endSize=8;" edge="1" parent="1" source="x2v_Wdm-Bi8G_KDgG7ra-55" target="x2v_Wdm-Bi8G_KDgG7ra-53">
          <mxGeometry relative="1" as="geometry" />
        </mxCell>
        <mxCell id="x2v_Wdm-Bi8G_KDgG7ra-55" value="L-name" style="ellipse;whiteSpace=wrap;html=1;align=center;fontFamily=Helvetica;fontSize=12;fontColor=default;labelBackgroundColor=default;" vertex="1" parent="1">
          <mxGeometry x="-1190" y="-90" width="100" height="40" as="geometry" />
        </mxCell>
        <mxCell id="x2v_Wdm-Bi8G_KDgG7ra-70" style="edgeStyle=none;shape=connector;curved=1;rounded=0;orthogonalLoop=1;jettySize=auto;html=1;exitX=0;exitY=1;exitDx=0;exitDy=0;strokeColor=default;align=center;verticalAlign=middle;fontFamily=Helvetica;fontSize=12;fontColor=default;labelBackgroundColor=default;startSize=8;endArrow=none;endFill=0;endSize=8;" edge="1" parent="1" source="x2v_Wdm-Bi8G_KDgG7ra-56" target="x2v_Wdm-Bi8G_KDgG7ra-50">
          <mxGeometry relative="1" as="geometry" />
        </mxCell>
        <mxCell id="x2v_Wdm-Bi8G_KDgG7ra-56" value="pass" style="ellipse;whiteSpace=wrap;html=1;align=center;fontFamily=Helvetica;fontSize=12;fontColor=default;labelBackgroundColor=default;" vertex="1" parent="1">
          <mxGeometry x="-890" y="-90" width="100" height="40" as="geometry" />
        </mxCell>
        <mxCell id="x2v_Wdm-Bi8G_KDgG7ra-75" style="edgeStyle=none;shape=connector;curved=1;rounded=0;orthogonalLoop=1;jettySize=auto;html=1;exitX=0;exitY=0.5;exitDx=0;exitDy=0;strokeColor=default;align=center;verticalAlign=middle;fontFamily=Helvetica;fontSize=12;fontColor=default;labelBackgroundColor=default;startSize=8;endArrow=none;endFill=0;endSize=8;" edge="1" parent="1" source="x2v_Wdm-Bi8G_KDgG7ra-57" target="x2v_Wdm-Bi8G_KDgG7ra-50">
          <mxGeometry relative="1" as="geometry" />
        </mxCell>
        <mxCell id="x2v_Wdm-Bi8G_KDgG7ra-57" value="gender" style="ellipse;whiteSpace=wrap;html=1;align=center;fontFamily=Helvetica;fontSize=12;fontColor=default;labelBackgroundColor=default;" vertex="1" parent="1">
          <mxGeometry x="-830" y="60" width="100" height="40" as="geometry" />
        </mxCell>
        <mxCell id="x2v_Wdm-Bi8G_KDgG7ra-74" style="edgeStyle=none;shape=connector;curved=1;rounded=0;orthogonalLoop=1;jettySize=auto;html=1;exitX=0;exitY=0;exitDx=0;exitDy=0;strokeColor=default;align=center;verticalAlign=middle;fontFamily=Helvetica;fontSize=12;fontColor=default;labelBackgroundColor=default;startSize=8;endArrow=none;endFill=0;endSize=8;" edge="1" parent="1" source="x2v_Wdm-Bi8G_KDgG7ra-58" target="x2v_Wdm-Bi8G_KDgG7ra-50">
          <mxGeometry relative="1" as="geometry" />
        </mxCell>
        <mxCell id="x2v_Wdm-Bi8G_KDgG7ra-58" value="study program" style="ellipse;whiteSpace=wrap;html=1;align=center;fontFamily=Helvetica;fontSize=12;fontColor=default;labelBackgroundColor=default;" vertex="1" parent="1">
          <mxGeometry x="-860" y="110" width="100" height="40" as="geometry" />
        </mxCell>
        <mxCell id="x2v_Wdm-Bi8G_KDgG7ra-76" style="edgeStyle=none;shape=connector;curved=1;rounded=0;orthogonalLoop=1;jettySize=auto;html=1;exitX=0;exitY=0.5;exitDx=0;exitDy=0;strokeColor=default;align=center;verticalAlign=middle;fontFamily=Helvetica;fontSize=12;fontColor=default;labelBackgroundColor=default;startSize=8;endArrow=none;endFill=0;endSize=8;" edge="1" parent="1" source="x2v_Wdm-Bi8G_KDgG7ra-59" target="x2v_Wdm-Bi8G_KDgG7ra-50">
          <mxGeometry relative="1" as="geometry" />
        </mxCell>
        <mxCell id="x2v_Wdm-Bi8G_KDgG7ra-59" value="hobbies" style="ellipse;whiteSpace=wrap;html=1;align=center;fontFamily=Helvetica;fontSize=12;fontColor=default;labelBackgroundColor=default;" vertex="1" parent="1">
          <mxGeometry x="-800" y="10" width="100" height="40" as="geometry" />
        </mxCell>
        <mxCell id="x2v_Wdm-Bi8G_KDgG7ra-73" style="edgeStyle=none;shape=connector;curved=1;rounded=0;orthogonalLoop=1;jettySize=auto;html=1;exitX=0.5;exitY=0;exitDx=0;exitDy=0;strokeColor=default;align=center;verticalAlign=middle;fontFamily=Helvetica;fontSize=12;fontColor=default;labelBackgroundColor=default;startSize=8;endArrow=none;endFill=0;endSize=8;" edge="1" parent="1" source="x2v_Wdm-Bi8G_KDgG7ra-60" target="x2v_Wdm-Bi8G_KDgG7ra-50">
          <mxGeometry relative="1" as="geometry" />
        </mxCell>
        <mxCell id="x2v_Wdm-Bi8G_KDgG7ra-60" value="network join date" style="ellipse;whiteSpace=wrap;html=1;align=center;fontFamily=Helvetica;fontSize=12;fontColor=default;labelBackgroundColor=default;" vertex="1" parent="1">
          <mxGeometry x="-930" y="140" width="100" height="40" as="geometry" />
        </mxCell>
        <mxCell id="x2v_Wdm-Bi8G_KDgG7ra-77" style="edgeStyle=none;shape=connector;curved=1;rounded=0;orthogonalLoop=1;jettySize=auto;html=1;exitX=0;exitY=1;exitDx=0;exitDy=0;strokeColor=default;align=center;verticalAlign=middle;fontFamily=Helvetica;fontSize=12;fontColor=default;labelBackgroundColor=default;startSize=8;endArrow=none;endFill=0;endSize=8;" edge="1" parent="1" source="x2v_Wdm-Bi8G_KDgG7ra-62" target="x2v_Wdm-Bi8G_KDgG7ra-50">
          <mxGeometry relative="1" as="geometry" />
        </mxCell>
        <mxCell id="x2v_Wdm-Bi8G_KDgG7ra-62" value="bday" style="ellipse;whiteSpace=wrap;html=1;align=center;fontFamily=Helvetica;fontSize=12;fontColor=default;labelBackgroundColor=default;" vertex="1" parent="1">
          <mxGeometry x="-840" y="-40" width="100" height="40" as="geometry" />
        </mxCell>
        <mxCell id="x2v_Wdm-Bi8G_KDgG7ra-66" style="edgeStyle=none;shape=connector;curved=1;rounded=0;orthogonalLoop=1;jettySize=auto;html=1;exitX=1;exitY=1;exitDx=0;exitDy=0;strokeColor=default;align=center;verticalAlign=middle;fontFamily=Helvetica;fontSize=12;fontColor=default;labelBackgroundColor=default;startSize=8;endArrow=none;endFill=0;endSize=8;" edge="1" parent="1" source="x2v_Wdm-Bi8G_KDgG7ra-63" target="x2v_Wdm-Bi8G_KDgG7ra-53">
          <mxGeometry relative="1" as="geometry" />
        </mxCell>
        <mxCell id="x2v_Wdm-Bi8G_KDgG7ra-63" value="F-name" style="ellipse;whiteSpace=wrap;html=1;align=center;fontFamily=Helvetica;fontSize=12;fontColor=default;labelBackgroundColor=default;" vertex="1" parent="1">
          <mxGeometry x="-1140" y="-130" width="100" height="40" as="geometry" />
        </mxCell>
        <mxCell id="x2v_Wdm-Bi8G_KDgG7ra-72" style="edgeStyle=none;shape=connector;curved=1;rounded=0;orthogonalLoop=1;jettySize=auto;html=1;exitX=1;exitY=0;exitDx=0;exitDy=0;entryX=0;entryY=0.5;entryDx=0;entryDy=0;strokeColor=default;align=center;verticalAlign=middle;fontFamily=Helvetica;fontSize=12;fontColor=default;labelBackgroundColor=default;startSize=8;endArrow=none;endFill=0;endSize=8;" edge="1" parent="1" source="x2v_Wdm-Bi8G_KDgG7ra-71" target="x2v_Wdm-Bi8G_KDgG7ra-50">
          <mxGeometry relative="1" as="geometry" />
        </mxCell>
        <mxCell id="x2v_Wdm-Bi8G_KDgG7ra-71" value="Profile picture" style="ellipse;whiteSpace=wrap;html=1;align=center;fontFamily=Helvetica;fontSize=12;fontColor=default;labelBackgroundColor=default;" vertex="1" parent="1">
          <mxGeometry x="-1100" y="50" width="100" height="40" as="geometry" />
        </mxCell>
        <mxCell id="x2v_Wdm-Bi8G_KDgG7ra-80" style="edgeStyle=none;shape=connector;curved=1;rounded=0;orthogonalLoop=1;jettySize=auto;html=1;strokeColor=default;align=center;verticalAlign=middle;fontFamily=Helvetica;fontSize=12;fontColor=default;labelBackgroundColor=default;startSize=8;endArrow=none;endFill=0;endSize=8;" edge="1" parent="1" source="x2v_Wdm-Bi8G_KDgG7ra-78" target="x2v_Wdm-Bi8G_KDgG7ra-2">
          <mxGeometry relative="1" as="geometry" />
        </mxCell>
        <mxCell id="x2v_Wdm-Bi8G_KDgG7ra-78" value="Student 1 ID" style="ellipse;whiteSpace=wrap;html=1;align=center;fontStyle=4;fontFamily=Helvetica;fontSize=12;fontColor=default;labelBackgroundColor=default;" vertex="1" parent="1">
          <mxGeometry x="-1380" y="90" width="100" height="40" as="geometry" />
        </mxCell>
        <mxCell id="x2v_Wdm-Bi8G_KDgG7ra-81" style="edgeStyle=none;shape=connector;curved=1;rounded=0;orthogonalLoop=1;jettySize=auto;html=1;strokeColor=default;align=center;verticalAlign=middle;fontFamily=Helvetica;fontSize=12;fontColor=default;labelBackgroundColor=default;startSize=8;endArrow=none;endFill=0;endSize=8;" edge="1" parent="1" source="x2v_Wdm-Bi8G_KDgG7ra-79" target="x2v_Wdm-Bi8G_KDgG7ra-2">
          <mxGeometry relative="1" as="geometry" />
        </mxCell>
        <mxCell id="x2v_Wdm-Bi8G_KDgG7ra-79" value="Student 2 ID" style="ellipse;whiteSpace=wrap;html=1;align=center;fontStyle=4;fontFamily=Helvetica;fontSize=12;fontColor=default;labelBackgroundColor=default;" vertex="1" parent="1">
          <mxGeometry x="-1420" y="40" width="100" height="40" as="geometry" />
        </mxCell>
        <mxCell id="x2v_Wdm-Bi8G_KDgG7ra-83" value="Status" style="ellipse;whiteSpace=wrap;html=1;align=center;fontFamily=Helvetica;fontSize=12;fontColor=default;labelBackgroundColor=default;" vertex="1" parent="1">
          <mxGeometry x="-1360" width="100" height="40" as="geometry" />
        </mxCell>
        <mxCell id="x2v_Wdm-Bi8G_KDgG7ra-85" value="Start date" style="ellipse;whiteSpace=wrap;html=1;align=center;fontFamily=Helvetica;fontSize=12;fontColor=default;labelBackgroundColor=default;" vertex="1" parent="1">
          <mxGeometry x="-1260" y="20" width="100" height="40" as="geometry" />
        </mxCell>
        <mxCell id="x2v_Wdm-Bi8G_KDgG7ra-92" style="edgeStyle=none;shape=connector;curved=1;rounded=0;orthogonalLoop=1;jettySize=auto;html=1;exitX=0;exitY=1;exitDx=0;exitDy=0;strokeColor=default;align=center;verticalAlign=middle;fontFamily=Helvetica;fontSize=12;fontColor=default;labelBackgroundColor=default;startSize=8;endArrow=none;endFill=0;endSize=8;" edge="1" parent="1" source="x2v_Wdm-Bi8G_KDgG7ra-87" target="x2v_Wdm-Bi8G_KDgG7ra-3">
          <mxGeometry relative="1" as="geometry" />
        </mxCell>
        <mxCell id="x2v_Wdm-Bi8G_KDgG7ra-87" value="&lt;u&gt;ID&lt;/u&gt;" style="ellipse;whiteSpace=wrap;html=1;align=center;fontFamily=Helvetica;fontSize=12;fontColor=default;labelBackgroundColor=default;" vertex="1" parent="1">
          <mxGeometry x="-800" y="210" width="100" height="40" as="geometry" />
        </mxCell>
        <mxCell id="x2v_Wdm-Bi8G_KDgG7ra-93" style="edgeStyle=none;shape=connector;curved=1;rounded=0;orthogonalLoop=1;jettySize=auto;html=1;exitX=0;exitY=0.5;exitDx=0;exitDy=0;strokeColor=default;align=center;verticalAlign=middle;fontFamily=Helvetica;fontSize=12;fontColor=default;labelBackgroundColor=default;startSize=8;endArrow=none;endFill=0;endSize=8;" edge="1" parent="1" source="x2v_Wdm-Bi8G_KDgG7ra-88" target="x2v_Wdm-Bi8G_KDgG7ra-3">
          <mxGeometry relative="1" as="geometry" />
        </mxCell>
        <mxCell id="x2v_Wdm-Bi8G_KDgG7ra-88" value="Name" style="ellipse;whiteSpace=wrap;html=1;align=center;fontFamily=Helvetica;fontSize=12;fontColor=default;labelBackgroundColor=default;" vertex="1" parent="1">
          <mxGeometry x="-720" y="250" width="100" height="40" as="geometry" />
        </mxCell>
        <mxCell id="x2v_Wdm-Bi8G_KDgG7ra-94" style="edgeStyle=none;shape=connector;curved=1;rounded=0;orthogonalLoop=1;jettySize=auto;html=1;exitX=0;exitY=0.5;exitDx=0;exitDy=0;strokeColor=default;align=center;verticalAlign=middle;fontFamily=Helvetica;fontSize=12;fontColor=default;labelBackgroundColor=default;startSize=8;endArrow=none;endFill=0;endSize=8;" edge="1" parent="1" source="x2v_Wdm-Bi8G_KDgG7ra-89" target="x2v_Wdm-Bi8G_KDgG7ra-3">
          <mxGeometry relative="1" as="geometry" />
        </mxCell>
        <mxCell id="x2v_Wdm-Bi8G_KDgG7ra-89" value="Subject" style="ellipse;whiteSpace=wrap;html=1;align=center;fontFamily=Helvetica;fontSize=12;fontColor=default;labelBackgroundColor=default;" vertex="1" parent="1">
          <mxGeometry x="-730" y="300" width="100" height="40" as="geometry" />
        </mxCell>
        <mxCell id="x2v_Wdm-Bi8G_KDgG7ra-95" style="edgeStyle=none;shape=connector;curved=1;rounded=0;orthogonalLoop=1;jettySize=auto;html=1;exitX=0;exitY=0;exitDx=0;exitDy=0;strokeColor=default;align=center;verticalAlign=middle;fontFamily=Helvetica;fontSize=12;fontColor=default;labelBackgroundColor=default;startSize=8;endArrow=none;endFill=0;endSize=8;" edge="1" parent="1" source="x2v_Wdm-Bi8G_KDgG7ra-90" target="x2v_Wdm-Bi8G_KDgG7ra-3">
          <mxGeometry relative="1" as="geometry" />
        </mxCell>
        <mxCell id="x2v_Wdm-Bi8G_KDgG7ra-90" value="Creation date" style="ellipse;whiteSpace=wrap;html=1;align=center;fontFamily=Helvetica;fontSize=12;fontColor=default;labelBackgroundColor=default;" vertex="1" parent="1">
          <mxGeometry x="-810" y="340" width="100" height="40" as="geometry" />
        </mxCell>
        <mxCell id="x2v_Wdm-Bi8G_KDgG7ra-97" style="edgeStyle=none;shape=connector;curved=1;rounded=0;orthogonalLoop=1;jettySize=auto;html=1;exitX=0.5;exitY=0;exitDx=0;exitDy=0;strokeColor=default;align=center;verticalAlign=middle;fontFamily=Helvetica;fontSize=12;fontColor=default;labelBackgroundColor=default;startSize=8;endArrow=none;endFill=0;endSize=8;" edge="1" parent="1" source="x2v_Wdm-Bi8G_KDgG7ra-96" target="x2v_Wdm-Bi8G_KDgG7ra-3">
          <mxGeometry relative="1" as="geometry" />
        </mxCell>
        <mxCell id="x2v_Wdm-Bi8G_KDgG7ra-96" value="Members" style="ellipse;whiteSpace=wrap;html=1;align=center;fontFamily=Helvetica;fontSize=12;fontColor=default;labelBackgroundColor=default;" vertex="1" parent="1">
          <mxGeometry x="-910" y="340" width="100" height="40" as="geometry" />
        </mxCell>
        <mxCell id="x2v_Wdm-Bi8G_KDgG7ra-106" style="edgeStyle=none;shape=connector;curved=1;rounded=0;orthogonalLoop=1;jettySize=auto;html=1;exitX=0;exitY=0.5;exitDx=0;exitDy=0;strokeColor=default;align=center;verticalAlign=middle;fontFamily=Helvetica;fontSize=12;fontColor=default;labelBackgroundColor=default;startSize=8;endArrow=none;endFill=0;endSize=8;" edge="1" parent="1" source="x2v_Wdm-Bi8G_KDgG7ra-98" target="x2v_Wdm-Bi8G_KDgG7ra-4">
          <mxGeometry relative="1" as="geometry" />
        </mxCell>
        <mxCell id="x2v_Wdm-Bi8G_KDgG7ra-98" value="Date &amp;amp; time" style="ellipse;whiteSpace=wrap;html=1;align=center;fontFamily=Helvetica;fontSize=12;fontColor=default;labelBackgroundColor=default;" vertex="1" parent="1">
          <mxGeometry x="-1100" y="510" width="100" height="40" as="geometry" />
        </mxCell>
        <mxCell id="x2v_Wdm-Bi8G_KDgG7ra-105" style="edgeStyle=none;shape=connector;curved=1;rounded=0;orthogonalLoop=1;jettySize=auto;html=1;exitX=0;exitY=0;exitDx=0;exitDy=0;strokeColor=default;align=center;verticalAlign=middle;fontFamily=Helvetica;fontSize=12;fontColor=default;labelBackgroundColor=default;startSize=8;endArrow=none;endFill=0;endSize=8;" edge="1" parent="1" source="x2v_Wdm-Bi8G_KDgG7ra-99" target="x2v_Wdm-Bi8G_KDgG7ra-4">
          <mxGeometry relative="1" as="geometry" />
        </mxCell>
        <mxCell id="x2v_Wdm-Bi8G_KDgG7ra-99" value="Address" style="ellipse;whiteSpace=wrap;html=1;align=center;fontFamily=Helvetica;fontSize=12;fontColor=default;labelBackgroundColor=default;" vertex="1" parent="1">
          <mxGeometry x="-1160" y="550" width="100" height="40" as="geometry" />
        </mxCell>
        <mxCell id="x2v_Wdm-Bi8G_KDgG7ra-104" style="edgeStyle=none;shape=connector;curved=1;rounded=0;orthogonalLoop=1;jettySize=auto;html=1;exitX=0.5;exitY=0;exitDx=0;exitDy=0;strokeColor=default;align=center;verticalAlign=middle;fontFamily=Helvetica;fontSize=12;fontColor=default;labelBackgroundColor=default;startSize=8;endArrow=none;endFill=0;endSize=8;" edge="1" parent="1" source="x2v_Wdm-Bi8G_KDgG7ra-100" target="x2v_Wdm-Bi8G_KDgG7ra-4">
          <mxGeometry relative="1" as="geometry" />
        </mxCell>
        <mxCell id="x2v_Wdm-Bi8G_KDgG7ra-100" value="Description" style="ellipse;whiteSpace=wrap;html=1;align=center;fontFamily=Helvetica;fontSize=12;fontColor=default;labelBackgroundColor=default;" vertex="1" parent="1">
          <mxGeometry x="-1250" y="570" width="100" height="40" as="geometry" />
        </mxCell>
        <mxCell id="x2v_Wdm-Bi8G_KDgG7ra-107" style="edgeStyle=none;shape=connector;curved=1;rounded=0;orthogonalLoop=1;jettySize=auto;html=1;exitX=1;exitY=0;exitDx=0;exitDy=0;strokeColor=default;align=center;verticalAlign=middle;fontFamily=Helvetica;fontSize=12;fontColor=default;labelBackgroundColor=default;startSize=8;endArrow=none;endFill=0;endSize=8;" edge="1" parent="1" source="x2v_Wdm-Bi8G_KDgG7ra-101" target="x2v_Wdm-Bi8G_KDgG7ra-4">
          <mxGeometry relative="1" as="geometry" />
        </mxCell>
        <mxCell id="x2v_Wdm-Bi8G_KDgG7ra-101" value="Nam&lt;span style=&quot;white-space: pre;&quot;&gt;&#x9;&lt;/span&gt;" style="ellipse;whiteSpace=wrap;html=1;align=center;fontFamily=Helvetica;fontSize=12;fontColor=default;labelBackgroundColor=default;" vertex="1" parent="1">
          <mxGeometry x="-1345" y="550" width="100" height="40" as="geometry" />
        </mxCell>
        <mxCell id="x2v_Wdm-Bi8G_KDgG7ra-108" style="edgeStyle=none;shape=connector;curved=1;rounded=0;orthogonalLoop=1;jettySize=auto;html=1;exitX=1;exitY=0;exitDx=0;exitDy=0;strokeColor=default;align=center;verticalAlign=middle;fontFamily=Helvetica;fontSize=12;fontColor=default;labelBackgroundColor=default;startSize=8;endArrow=none;endFill=0;endSize=8;" edge="1" parent="1" source="x2v_Wdm-Bi8G_KDgG7ra-102" target="x2v_Wdm-Bi8G_KDgG7ra-4">
          <mxGeometry relative="1" as="geometry" />
        </mxCell>
        <mxCell id="x2v_Wdm-Bi8G_KDgG7ra-102" value="&lt;u&gt;ID&lt;/u&gt;" style="ellipse;whiteSpace=wrap;html=1;align=center;fontFamily=Helvetica;fontSize=12;fontColor=default;labelBackgroundColor=default;" vertex="1" parent="1">
          <mxGeometry x="-1400" y="510" width="100" height="40" as="geometry" />
        </mxCell>
        <mxCell id="x2v_Wdm-Bi8G_KDgG7ra-111" style="edgeStyle=none;shape=connector;curved=1;rounded=0;orthogonalLoop=1;jettySize=auto;html=1;exitX=0.5;exitY=0;exitDx=0;exitDy=0;strokeColor=default;align=center;verticalAlign=middle;fontFamily=Helvetica;fontSize=12;fontColor=default;labelBackgroundColor=default;startSize=8;endArrow=none;endFill=0;endSize=8;" edge="1" parent="1" source="x2v_Wdm-Bi8G_KDgG7ra-109" target="x2v_Wdm-Bi8G_KDgG7ra-100">
          <mxGeometry relative="1" as="geometry" />
        </mxCell>
        <mxCell id="x2v_Wdm-Bi8G_KDgG7ra-109" value="Street" style="ellipse;whiteSpace=wrap;html=1;align=center;fontFamily=Helvetica;fontSize=12;fontColor=default;labelBackgroundColor=default;" vertex="1" parent="1">
          <mxGeometry x="-1300" y="640" width="100" height="40" as="geometry" />
        </mxCell>
        <mxCell id="x2v_Wdm-Bi8G_KDgG7ra-112" style="edgeStyle=none;shape=connector;curved=1;rounded=0;orthogonalLoop=1;jettySize=auto;html=1;exitX=0.5;exitY=0;exitDx=0;exitDy=0;strokeColor=default;align=center;verticalAlign=middle;fontFamily=Helvetica;fontSize=12;fontColor=default;labelBackgroundColor=default;startSize=8;endArrow=none;endFill=0;endSize=8;" edge="1" parent="1" source="x2v_Wdm-Bi8G_KDgG7ra-110" target="x2v_Wdm-Bi8G_KDgG7ra-100">
          <mxGeometry relative="1" as="geometry" />
        </mxCell>
        <mxCell id="x2v_Wdm-Bi8G_KDgG7ra-110" value="Postal code" style="ellipse;whiteSpace=wrap;html=1;align=center;fontFamily=Helvetica;fontSize=12;fontColor=default;labelBackgroundColor=default;" vertex="1" parent="1">
          <mxGeometry x="-1200" y="640" width="100" height="40" as="geometry" />
        </mxCell>
        <mxCell id="x2v_Wdm-Bi8G_KDgG7ra-121" style="edgeStyle=none;shape=connector;curved=1;rounded=0;orthogonalLoop=1;jettySize=auto;html=1;exitX=1;exitY=1;exitDx=0;exitDy=0;strokeColor=default;align=center;verticalAlign=middle;fontFamily=Helvetica;fontSize=12;fontColor=default;labelBackgroundColor=default;startSize=8;endArrow=none;endFill=0;endSize=8;" edge="1" parent="1" source="x2v_Wdm-Bi8G_KDgG7ra-113" target="x2v_Wdm-Bi8G_KDgG7ra-5">
          <mxGeometry relative="1" as="geometry" />
        </mxCell>
        <mxCell id="x2v_Wdm-Bi8G_KDgG7ra-113" value="&lt;u&gt;ID&lt;/u&gt;" style="ellipse;whiteSpace=wrap;html=1;align=center;fontFamily=Helvetica;fontSize=12;fontColor=default;labelBackgroundColor=default;" vertex="1" parent="1">
          <mxGeometry x="-1750" y="250" width="100" height="40" as="geometry" />
        </mxCell>
        <mxCell id="x2v_Wdm-Bi8G_KDgG7ra-122" style="edgeStyle=none;shape=connector;curved=1;rounded=0;orthogonalLoop=1;jettySize=auto;html=1;exitX=1;exitY=0.5;exitDx=0;exitDy=0;strokeColor=default;align=center;verticalAlign=middle;fontFamily=Helvetica;fontSize=12;fontColor=default;labelBackgroundColor=default;startSize=8;endArrow=none;endFill=0;endSize=8;" edge="1" parent="1" source="x2v_Wdm-Bi8G_KDgG7ra-114" target="x2v_Wdm-Bi8G_KDgG7ra-5">
          <mxGeometry relative="1" as="geometry" />
        </mxCell>
        <mxCell id="x2v_Wdm-Bi8G_KDgG7ra-114" value="Text" style="ellipse;whiteSpace=wrap;html=1;align=center;fontFamily=Helvetica;fontSize=12;fontColor=default;labelBackgroundColor=default;" vertex="1" parent="1">
          <mxGeometry x="-1800" y="290" width="100" height="40" as="geometry" />
        </mxCell>
        <mxCell id="x2v_Wdm-Bi8G_KDgG7ra-124" style="edgeStyle=none;shape=connector;curved=1;rounded=0;orthogonalLoop=1;jettySize=auto;html=1;exitX=1;exitY=0;exitDx=0;exitDy=0;strokeColor=default;align=center;verticalAlign=middle;fontFamily=Helvetica;fontSize=12;fontColor=default;labelBackgroundColor=default;startSize=8;endArrow=none;endFill=0;endSize=8;" edge="1" parent="1" source="x2v_Wdm-Bi8G_KDgG7ra-115" target="x2v_Wdm-Bi8G_KDgG7ra-5">
          <mxGeometry relative="1" as="geometry" />
        </mxCell>
        <mxCell id="x2v_Wdm-Bi8G_KDgG7ra-115" value="Img" style="ellipse;whiteSpace=wrap;html=1;align=center;fontFamily=Helvetica;fontSize=12;fontColor=default;labelBackgroundColor=default;" vertex="1" parent="1">
          <mxGeometry x="-1760" y="330" width="100" height="40" as="geometry" />
        </mxCell>
        <mxCell id="x2v_Wdm-Bi8G_KDgG7ra-125" style="edgeStyle=none;shape=connector;curved=1;rounded=0;orthogonalLoop=1;jettySize=auto;html=1;exitX=1;exitY=0;exitDx=0;exitDy=0;strokeColor=default;align=center;verticalAlign=middle;fontFamily=Helvetica;fontSize=12;fontColor=default;labelBackgroundColor=default;startSize=8;endArrow=none;endFill=0;endSize=8;" edge="1" parent="1" source="x2v_Wdm-Bi8G_KDgG7ra-116" target="x2v_Wdm-Bi8G_KDgG7ra-5">
          <mxGeometry relative="1" as="geometry" />
        </mxCell>
        <mxCell id="x2v_Wdm-Bi8G_KDgG7ra-116" value="Address" style="ellipse;whiteSpace=wrap;html=1;align=center;fontFamily=Helvetica;fontSize=12;fontColor=default;labelBackgroundColor=default;" vertex="1" parent="1">
          <mxGeometry x="-1710" y="370" width="100" height="40" as="geometry" />
        </mxCell>
        <mxCell id="x2v_Wdm-Bi8G_KDgG7ra-126" style="edgeStyle=none;shape=connector;curved=1;rounded=0;orthogonalLoop=1;jettySize=auto;html=1;exitX=0.5;exitY=0;exitDx=0;exitDy=0;strokeColor=default;align=center;verticalAlign=middle;fontFamily=Helvetica;fontSize=12;fontColor=default;labelBackgroundColor=default;startSize=8;endArrow=none;endFill=0;endSize=8;" edge="1" parent="1" source="x2v_Wdm-Bi8G_KDgG7ra-117" target="x2v_Wdm-Bi8G_KDgG7ra-5">
          <mxGeometry relative="1" as="geometry" />
        </mxCell>
        <mxCell id="x2v_Wdm-Bi8G_KDgG7ra-117" value="Post date" style="ellipse;whiteSpace=wrap;html=1;align=center;fontFamily=Helvetica;fontSize=12;fontColor=default;labelBackgroundColor=default;" vertex="1" parent="1">
          <mxGeometry x="-1620" y="390" width="100" height="40" as="geometry" />
        </mxCell>
        <mxCell id="x2v_Wdm-Bi8G_KDgG7ra-127" style="edgeStyle=none;shape=connector;curved=1;rounded=0;orthogonalLoop=1;jettySize=auto;html=1;exitX=0;exitY=0;exitDx=0;exitDy=0;strokeColor=default;align=center;verticalAlign=middle;fontFamily=Helvetica;fontSize=12;fontColor=default;labelBackgroundColor=default;startSize=8;endArrow=none;endFill=0;endSize=8;" edge="1" parent="1" source="x2v_Wdm-Bi8G_KDgG7ra-118" target="x2v_Wdm-Bi8G_KDgG7ra-5">
          <mxGeometry relative="1" as="geometry" />
        </mxCell>
        <mxCell id="x2v_Wdm-Bi8G_KDgG7ra-118" value="Student ID" style="ellipse;whiteSpace=wrap;html=1;align=center;fontFamily=Helvetica;fontSize=12;fontColor=default;labelBackgroundColor=default;" vertex="1" parent="1">
          <mxGeometry x="-1530" y="360" width="100" height="40" as="geometry" />
        </mxCell>
        <mxCell id="x2v_Wdm-Bi8G_KDgG7ra-131" style="edgeStyle=none;shape=connector;curved=1;rounded=0;orthogonalLoop=1;jettySize=auto;html=1;exitX=1;exitY=0;exitDx=0;exitDy=0;strokeColor=default;align=center;verticalAlign=middle;fontFamily=Helvetica;fontSize=12;fontColor=default;labelBackgroundColor=default;startSize=8;endArrow=none;endFill=0;endSize=8;" edge="1" parent="1" source="x2v_Wdm-Bi8G_KDgG7ra-128" target="x2v_Wdm-Bi8G_KDgG7ra-116">
          <mxGeometry relative="1" as="geometry" />
        </mxCell>
        <mxCell id="x2v_Wdm-Bi8G_KDgG7ra-128" value="Street" style="ellipse;whiteSpace=wrap;html=1;align=center;fontFamily=Helvetica;fontSize=12;fontColor=default;labelBackgroundColor=default;" vertex="1" parent="1">
          <mxGeometry x="-1810" y="415" width="100" height="40" as="geometry" />
        </mxCell>
        <mxCell id="x2v_Wdm-Bi8G_KDgG7ra-130" style="edgeStyle=none;shape=connector;curved=1;rounded=0;orthogonalLoop=1;jettySize=auto;html=1;exitX=0.5;exitY=0;exitDx=0;exitDy=0;strokeColor=default;align=center;verticalAlign=middle;fontFamily=Helvetica;fontSize=12;fontColor=default;labelBackgroundColor=default;startSize=8;endArrow=none;endFill=0;endSize=8;" edge="1" parent="1" source="x2v_Wdm-Bi8G_KDgG7ra-129" target="x2v_Wdm-Bi8G_KDgG7ra-116">
          <mxGeometry relative="1" as="geometry" />
        </mxCell>
        <mxCell id="x2v_Wdm-Bi8G_KDgG7ra-129" value="Postal code" style="ellipse;whiteSpace=wrap;html=1;align=center;fontFamily=Helvetica;fontSize=12;fontColor=default;labelBackgroundColor=default;" vertex="1" parent="1">
          <mxGeometry x="-1720" y="445" width="100" height="40" as="geometry" />
        </mxCell>
        <mxCell id="x2v_Wdm-Bi8G_KDgG7ra-138" style="edgeStyle=none;shape=connector;curved=1;rounded=0;orthogonalLoop=1;jettySize=auto;html=1;exitX=0.5;exitY=1;exitDx=0;exitDy=0;strokeColor=default;align=center;verticalAlign=middle;fontFamily=Helvetica;fontSize=12;fontColor=default;labelBackgroundColor=default;startSize=8;endArrow=none;endFill=0;endSize=8;" edge="1" parent="1" source="x2v_Wdm-Bi8G_KDgG7ra-133" target="x2v_Wdm-Bi8G_KDgG7ra-6">
          <mxGeometry relative="1" as="geometry">
            <mxPoint x="-1570" y="110" as="targetPoint" />
          </mxGeometry>
        </mxCell>
        <mxCell id="x2v_Wdm-Bi8G_KDgG7ra-133" value="Post ID" style="ellipse;whiteSpace=wrap;html=1;align=center;fontStyle=4;fontFamily=Helvetica;fontSize=12;fontColor=default;labelBackgroundColor=default;" vertex="1" parent="1">
          <mxGeometry x="-1630" y="10" width="100" height="40" as="geometry" />
        </mxCell>
        <mxCell id="x2v_Wdm-Bi8G_KDgG7ra-137" style="edgeStyle=none;shape=connector;curved=1;rounded=0;orthogonalLoop=1;jettySize=auto;html=1;exitX=1;exitY=1;exitDx=0;exitDy=0;strokeColor=default;align=center;verticalAlign=middle;fontFamily=Helvetica;fontSize=12;fontColor=default;labelBackgroundColor=default;startSize=8;endArrow=none;endFill=0;endSize=8;" edge="1" parent="1" source="x2v_Wdm-Bi8G_KDgG7ra-134" target="x2v_Wdm-Bi8G_KDgG7ra-6">
          <mxGeometry relative="1" as="geometry" />
        </mxCell>
        <mxCell id="x2v_Wdm-Bi8G_KDgG7ra-134" value="Student ID" style="ellipse;whiteSpace=wrap;html=1;align=center;fontFamily=Helvetica;fontSize=12;fontColor=default;labelBackgroundColor=default;" vertex="1" parent="1">
          <mxGeometry x="-1740" y="20" width="100" height="40" as="geometry" />
        </mxCell>
        <mxCell id="x2v_Wdm-Bi8G_KDgG7ra-136" style="edgeStyle=none;shape=connector;curved=1;rounded=0;orthogonalLoop=1;jettySize=auto;html=1;exitX=1;exitY=0.5;exitDx=0;exitDy=0;entryX=0;entryY=0.5;entryDx=0;entryDy=0;strokeColor=default;align=center;verticalAlign=middle;fontFamily=Helvetica;fontSize=12;fontColor=default;labelBackgroundColor=default;startSize=8;endArrow=none;endFill=0;endSize=8;" edge="1" parent="1" source="x2v_Wdm-Bi8G_KDgG7ra-135" target="x2v_Wdm-Bi8G_KDgG7ra-6">
          <mxGeometry relative="1" as="geometry" />
        </mxCell>
        <mxCell id="x2v_Wdm-Bi8G_KDgG7ra-135" value="Text" style="ellipse;whiteSpace=wrap;html=1;align=center;fontFamily=Helvetica;fontSize=12;fontColor=default;labelBackgroundColor=default;" vertex="1" parent="1">
          <mxGeometry x="-1780" y="70" width="100" height="40" as="geometry" />
        </mxCell>
      </root>
    </mxGraphModel>
  </diagram>
</mxfile>
